# MagicaVoxel @ Ephtracy

# group
g averias

# material
mtllib averias.mtl
usemtl palette

# normals
vn -1 0 0
vn 1 0 0
vn 0 0 1
vn 0 0 -1
vn 0 -1 0
vn 0 1 0

# texcoords
vt 0.306641 0.5
vt 0.841797 0.5
vt 0.876953 0.5
vt 0.994141 0.5

# verts
v -20 0 2.5
v -20 0 -2.5
v -20 40 2.5
v -20 40 -2.5
v -15 5 -2.5
v -15 5 -3.5
v -15 35 -2.5
v -15 35 -3.5
v -14 3 3.5
v -14 3 2.5
v -14 35 3.5
v -14 35 2.5
v -12 35 3.5
v -12 35 2.5
v -12 35 -2.5
v -12 35 -3.5
v -12 39 3.5
v -12 39 2.5
v -12 39 -2.5
v -12 39 -3.5
v 12 5 -2.5
v 12 5 -3.5
v 12 6 3.5
v 12 6 2.5
v 12 21 3.5
v 12 21 2.5
v 12 21 -2.5
v 12 21 -3.5
v 12 22 3.5
v 12 22 2.5
v 12 22 -2.5
v 12 22 -3.5
v 12 34 3.5
v 12 34 2.5
v 12 34 -2.5
v 12 34 -3.5
v 13 3 -2.5
v 13 3 -3.5
v 13 5 3.5
v 13 5 2.5
v 13 5 -2.5
v 13 5 -3.5
v 13 6 3.5
v 13 6 2.5
v -13 3 3.5
v -13 3 2.5
v -13 5 3.5
v -13 5 2.5
v -13 5 -2.5
v -13 5 -3.5
v -13 6 -2.5
v -13 6 -3.5
v -12 5 3.5
v -12 5 2.5
v -12 6 -2.5
v -12 6 -3.5
v -12 21 3.5
v -12 21 2.5
v -12 21 -2.5
v -12 21 -3.5
v -12 22 3.5
v -12 22 2.5
v -12 22 -2.5
v -12 22 -3.5
v -12 34 3.5
v -12 34 2.5
v -12 34 -2.5
v -12 34 -3.5
v 12 35 3.5
v 12 35 2.5
v 12 35 -2.5
v 12 35 -3.5
v 12 39 3.5
v 12 39 2.5
v 12 39 -2.5
v 12 39 -3.5
v 14 3 -2.5
v 14 3 -3.5
v 14 35 -2.5
v 14 35 -3.5
v 15 5 3.5
v 15 5 2.5
v 15 35 3.5
v 15 35 2.5
v 20 0 2.5
v 20 0 -2.5
v 20 40 2.5
v 20 40 -2.5
v -14 3 3.5
v -14 35 3.5
v -13 3 3.5
v -13 5 3.5
v -12 5 3.5
v -12 21 3.5
v -12 22 3.5
v -12 34 3.5
v -12 35 3.5
v -12 39 3.5
v 12 6 3.5
v 12 21 3.5
v 12 22 3.5
v 12 34 3.5
v 12 35 3.5
v 12 39 3.5
v 13 5 3.5
v 13 6 3.5
v 15 5 3.5
v 15 35 3.5
v -20 0 2.5
v -20 40 2.5
v -14 3 2.5
v -14 35 2.5
v -13 3 2.5
v -13 5 2.5
v -12 5 2.5
v -12 21 2.5
v -12 22 2.5
v -12 34 2.5
v -12 35 2.5
v -12 39 2.5
v -10 13 2.5
v -10 15 2.5
v -9 12 2.5
v -9 13 2.5
v -9 14 2.5
v -9 15 2.5
v -8 11 2.5
v -8 12 2.5
v -8 13 2.5
v -8 14 2.5
v -7 11 2.5
v -7 12 2.5
v -7 13 2.5
v -7 14 2.5
v -6 5 2.5
v -6 6 2.5
v -6 12 2.5
v -6 13 2.5
v -6 14 2.5
v -6 15 2.5
v -5 5 2.5
v -5 6 2.5
v -5 8 2.5
v -5 13 2.5
v -5 15 2.5
v -4 7 2.5
v -4 8 2.5
v -4 9 2.5
v -4 11 2.5
v -4 16 2.5
v -3 7 2.5
v -3 8 2.5
v -3 9 2.5
v -3 12 2.5
v -3 13 2.5
v -3 14 2.5
v -3 15 2.5
v -2 5 2.5
v -2 6 2.5
v -2 8 2.5
v -1 5 2.5
v -1 6 2.5
v -1 11 2.5
v -1 12 2.5
v -1 13 2.5
v -1 14 2.5
v -1 15 2.5
v -1 16 2.5
v 0 3 2.5
v 0 4 2.5
v 0 6 2.5
v 0 7 2.5
v 1 3 2.5
v 1 4 2.5
v 1 5 2.5
v 1 6 2.5
v 1 7 2.5
v 1 8 2.5
v 1 10 2.5
v 1 16 2.5
v 2 3 2.5
v 2 4 2.5
v 2 10 2.5
v 2 12 2.5
v 2 13 2.5
v 2 15 2.5
v 3 3 2.5
v 3 4 2.5
v 3 5 2.5
v 3 6 2.5
v 3 7 2.5
v 3 8 2.5
v 3 11 2.5
v 3 12 2.5
v 3 13 2.5
v 3 15 2.5
v 3 16 2.5
v 4 4 2.5
v 4 5 2.5
v 4 10 2.5
v 4 11 2.5
v 4 12 2.5
v 4 13 2.5
v 4 15 2.5
v 5 10 2.5
v 5 11 2.5
v 8 10 2.5
v 8 13 2.5
v 8 15 2.5
v 8 16 2.5
v 9 10 2.5
v 9 13 2.5
v 9 15 2.5
v 9 16 2.5
v 12 6 2.5
v 12 21 2.5
v 12 22 2.5
v 12 34 2.5
v 12 35 2.5
v 12 39 2.5
v 13 5 2.5
v 13 6 2.5
v 15 5 2.5
v 15 35 2.5
v 20 0 2.5
v 20 40 2.5
v -20 0 -2.5
v -20 40 -2.5
v -15 5 -2.5
v -15 35 -2.5
v -13 5 -2.5
v -13 6 -2.5
v -12 6 -2.5
v -12 21 -2.5
v -12 22 -2.5
v -12 34 -2.5
v -12 35 -2.5
v -12 39 -2.5
v -9 10 -2.5
v -9 13 -2.5
v -9 15 -2.5
v -9 16 -2.5
v -8 10 -2.5
v -8 13 -2.5
v -8 15 -2.5
v -8 16 -2.5
v -5 10 -2.5
v -5 11 -2.5
v -4 4 -2.5
v -4 5 -2.5
v -4 10 -2.5
v -4 11 -2.5
v -4 12 -2.5
v -4 13 -2.5
v -4 15 -2.5
v -3 3 -2.5
v -3 4 -2.5
v -3 5 -2.5
v -3 6 -2.5
v -3 7 -2.5
v -3 8 -2.5
v -3 11 -2.5
v -3 12 -2.5
v -3 13 -2.5
v -3 15 -2.5
v -3 16 -2.5
v -2 3 -2.5
v -2 4 -2.5
v -2 10 -2.5
v -2 12 -2.5
v -2 13 -2.5
v -2 15 -2.5
v -1 3 -2.5
v -1 4 -2.5
v -1 5 -2.5
v -1 6 -2.5
v -1 7 -2.5
v -1 8 -2.5
v -1 10 -2.5
v -1 16 -2.5
v 0 3 -2.5
v 0 4 -2.5
v 0 6 -2.5
v 0 7 -2.5
v 1 5 -2.5
v 1 6 -2.5
v 1 11 -2.5
v 1 12 -2.5
v 1 13 -2.5
v 1 14 -2.5
v 1 15 -2.5
v 1 16 -2.5
v 2 5 -2.5
v 2 6 -2.5
v 2 8 -2.5
v 3 7 -2.5
v 3 8 -2.5
v 3 9 -2.5
v 3 12 -2.5
v 3 13 -2.5
v 3 14 -2.5
v 3 15 -2.5
v 4 7 -2.5
v 4 8 -2.5
v 4 9 -2.5
v 4 11 -2.5
v 4 16 -2.5
v 5 5 -2.5
v 5 6 -2.5
v 5 8 -2.5
v 5 13 -2.5
v 5 15 -2.5
v 6 5 -2.5
v 6 6 -2.5
v 6 12 -2.5
v 6 13 -2.5
v 6 14 -2.5
v 6 15 -2.5
v 7 11 -2.5
v 7 12 -2.5
v 7 13 -2.5
v 7 14 -2.5
v 8 11 -2.5
v 8 12 -2.5
v 8 13 -2.5
v 8 14 -2.5
v 9 12 -2.5
v 9 13 -2.5
v 9 14 -2.5
v 9 15 -2.5
v 10 13 -2.5
v 10 15 -2.5
v 12 5 -2.5
v 12 21 -2.5
v 12 22 -2.5
v 12 34 -2.5
v 12 35 -2.5
v 12 39 -2.5
v 13 3 -2.5
v 13 5 -2.5
v 14 3 -2.5
v 14 35 -2.5
v 20 0 -2.5
v 20 40 -2.5
v -15 5 -3.5
v -15 35 -3.5
v -13 5 -3.5
v -13 6 -3.5
v -12 6 -3.5
v -12 21 -3.5
v -12 22 -3.5
v -12 34 -3.5
v -12 35 -3.5
v -12 39 -3.5
v 12 5 -3.5
v 12 21 -3.5
v 12 22 -3.5
v 12 34 -3.5
v 12 35 -3.5
v 12 39 -3.5
v 13 3 -3.5
v 13 5 -3.5
v 14 3 -3.5
v 14 35 -3.5
v -20 0 2.5
v 20 0 2.5
v -20 0 -2.5
v 20 0 -2.5
v -14 3 3.5
v -13 3 3.5
v -14 3 2.5
v -13 3 2.5
v 13 3 -2.5
v 14 3 -2.5
v 13 3 -3.5
v 14 3 -3.5
v -13 5 3.5
v -12 5 3.5
v 13 5 3.5
v 15 5 3.5
v -13 5 2.5
v -12 5 2.5
v 13 5 2.5
v 15 5 2.5
v -15 5 -2.5
v -13 5 -2.5
v 12 5 -2.5
v 13 5 -2.5
v -15 5 -3.5
v -13 5 -3.5
v 12 5 -3.5
v 13 5 -3.5
v 12 6 3.5
v 13 6 3.5
v 12 6 2.5
v 13 6 2.5
v -13 6 -2.5
v -12 6 -2.5
v -13 6 -3.5
v -12 6 -3.5
v -12 21 3.5
v 12 21 3.5
v -12 21 2.5
v 12 21 2.5
v -12 21 -2.5
v 12 21 -2.5
v -12 21 -3.5
v 12 21 -3.5
v -12 34 3.5
v 12 34 3.5
v -12 34 2.5
v 12 34 2.5
v -12 34 -2.5
v 12 34 -2.5
v -12 34 -3.5
v 12 34 -3.5
v -12 22 3.5
v 12 22 3.5
v -12 22 2.5
v 12 22 2.5
v -12 22 -2.5
v 12 22 -2.5
v -12 22 -3.5
v 12 22 -3.5
v -14 35 3.5
v -12 35 3.5
v 12 35 3.5
v 15 35 3.5
v -14 35 2.5
v -12 35 2.5
v 12 35 2.5
v 15 35 2.5
v -15 35 -2.5
v -12 35 -2.5
v 12 35 -2.5
v 14 35 -2.5
v -15 35 -3.5
v -12 35 -3.5
v 12 35 -3.5
v 14 35 -3.5
v -12 39 3.5
v 12 39 3.5
v -12 39 2.5
v 12 39 2.5
v -12 39 -2.5
v 12 39 -2.5
v -12 39 -3.5
v 12 39 -3.5
v -20 40 2.5
v 20 40 2.5
v -20 40 -2.5
v 20 40 -2.5

# faces
f 3/2/1 2/2/1 1/2/1
f 4/2/1 2/2/1 3/2/1
f 7/4/1 6/4/1 5/4/1
f 8/4/1 6/4/1 7/4/1
f 11/4/1 10/4/1 9/4/1
f 12/4/1 10/4/1 11/4/1
f 17/4/1 14/4/1 13/4/1
f 18/4/1 14/4/1 17/4/1
f 19/4/1 16/4/1 15/4/1
f 20/4/1 16/4/1 19/4/1
f 25/4/1 24/4/1 23/4/1
f 26/4/1 24/4/1 25/4/1
f 27/4/1 22/4/1 21/4/1
f 28/4/1 22/4/1 27/4/1
f 33/4/1 30/4/1 29/4/1
f 34/4/1 30/4/1 33/4/1
f 35/4/1 32/4/1 31/4/1
f 36/4/1 32/4/1 35/4/1
f 41/4/1 38/4/1 37/4/1
f 42/4/1 38/4/1 41/4/1
f 43/4/1 40/4/1 39/4/1
f 44/4/1 40/4/1 43/4/1
f 45/4/2 46/4/2 47/4/2
f 47/4/2 46/4/2 48/4/2
f 49/4/2 50/4/2 51/4/2
f 51/4/2 50/4/2 52/4/2
f 53/4/2 54/4/2 57/4/2
f 57/4/2 54/4/2 58/4/2
f 55/4/2 56/4/2 59/4/2
f 59/4/2 56/4/2 60/4/2
f 61/4/2 62/4/2 65/4/2
f 65/4/2 62/4/2 66/4/2
f 63/4/2 64/4/2 67/4/2
f 67/4/2 64/4/2 68/4/2
f 69/4/2 70/4/2 73/4/2
f 73/4/2 70/4/2 74/4/2
f 71/4/2 72/4/2 75/4/2
f 75/4/2 72/4/2 76/4/2
f 77/4/2 78/4/2 79/4/2
f 79/4/2 78/4/2 80/4/2
f 81/4/2 82/4/2 83/4/2
f 83/4/2 82/4/2 84/4/2
f 85/2/2 86/2/2 87/2/2
f 87/2/2 86/2/2 88/2/2
f 91/4/3 90/4/3 89/4/3
f 92/4/3 90/4/3 91/4/3
f 93/4/3 90/4/3 92/4/3
f 94/4/3 90/4/3 93/4/3
f 95/4/3 90/4/3 94/4/3
f 96/4/3 90/4/3 95/4/3
f 97/4/3 90/4/3 96/4/3
f 100/4/3 95/4/3 94/4/3
f 101/4/3 95/4/3 100/4/3
f 102/4/3 98/4/3 97/4/3
f 102/4/3 97/4/3 96/4/3
f 103/4/3 98/4/3 102/4/3
f 104/4/3 98/4/3 103/4/3
f 106/4/3 101/4/3 100/4/3
f 106/4/3 100/4/3 99/4/3
f 106/4/3 103/4/3 102/4/3
f 106/4/3 102/4/3 101/4/3
f 107/4/3 106/4/3 105/4/3
f 108/4/3 103/4/3 106/4/3
f 108/4/3 106/4/3 107/4/3
f 111/2/3 110/2/3 109/2/3
f 112/2/3 110/2/3 111/2/3
f 113/2/3 111/2/3 109/2/3
f 115/2/3 114/2/3 113/2/3
f 119/2/3 110/2/3 112/2/3
f 120/2/3 110/2/3 119/2/3
f 121/2/3 116/2/3 115/2/3
f 122/2/3 116/2/3 121/2/3
f 123/2/3 121/2/3 115/2/3
f 124/3/3 122/3/3 121/3/3
f 124/2/3 121/2/3 123/2/3
f 125/3/3 122/3/3 124/3/3
f 126/2/3 116/2/3 122/2/3
f 126/3/3 122/3/3 125/3/3
f 127/2/3 123/2/3 115/2/3
f 128/3/3 125/3/3 124/3/3
f 128/2/3 123/2/3 127/2/3
f 128/3/3 124/3/3 123/3/3
f 129/3/3 125/3/3 128/3/3
f 130/2/3 126/2/3 125/2/3
f 130/3/3 125/3/3 129/3/3
f 131/2/3 127/2/3 115/2/3
f 131/3/3 129/3/3 128/3/3
f 131/3/3 128/3/3 127/3/3
f 132/3/3 129/3/3 131/3/3
f 133/2/3 130/2/3 129/2/3
f 133/3/3 129/3/3 132/3/3
f 134/2/3 126/2/3 130/2/3
f 134/2/3 130/2/3 133/2/3
f 135/2/3 115/2/3 113/2/3
f 135/2/3 132/2/3 131/2/3
f 135/2/3 131/2/3 115/2/3
f 136/2/3 132/2/3 135/2/3
f 137/3/3 133/3/3 132/3/3
f 137/2/3 132/2/3 136/2/3
f 137/3/3 134/3/3 133/3/3
f 138/3/3 134/3/3 137/3/3
f 139/2/3 126/2/3 134/2/3
f 139/3/3 134/3/3 138/3/3
f 140/2/3 116/2/3 126/2/3
f 140/2/3 126/2/3 139/2/3
f 141/3/3 136/3/3 135/3/3
f 141/2/3 135/2/3 113/2/3
f 142/2/3 138/2/3 137/2/3
f 142/3/3 136/3/3 141/3/3
f 142/2/3 137/2/3 136/2/3
f 143/2/3 138/2/3 142/2/3
f 144/3/3 139/3/3 138/3/3
f 144/2/3 138/2/3 143/2/3
f 144/3/3 140/3/3 139/3/3
f 145/2/3 116/2/3 140/2/3
f 145/3/3 140/3/3 144/3/3
f 146/3/3 143/3/3 142/3/3
f 147/2/3 144/2/3 143/2/3
f 147/3/3 143/3/3 146/3/3
f 147/2/3 145/2/3 144/2/3
f 148/2/3 145/2/3 147/2/3
f 149/2/3 145/2/3 148/2/3
f 150/2/3 116/2/3 145/2/3
f 150/2/3 145/2/3 149/2/3
f 151/3/3 146/3/3 142/3/3
f 151/2/3 147/2/3 146/2/3
f 152/3/3 148/3/3 147/3/3
f 152/2/3 147/2/3 151/2/3
f 153/2/3 149/2/3 148/2/3
f 153/3/3 148/3/3 152/3/3
f 154/3/3 150/3/3 149/3/3
f 155/3/3 150/3/3 154/3/3
f 156/3/3 150/3/3 155/3/3
f 157/3/3 150/3/3 156/3/3
f 158/2/3 141/2/3 113/2/3
f 158/2/3 142/2/3 141/2/3
f 159/3/3 152/3/3 151/3/3
f 159/2/3 142/2/3 158/2/3
f 159/3/3 151/3/3 142/3/3
f 160/2/3 153/2/3 152/2/3
f 160/3/3 152/3/3 159/3/3
f 161/2/3 158/2/3 113/2/3
f 161/3/3 159/3/3 158/3/3
f 162/2/3 160/2/3 159/2/3
f 162/3/3 159/3/3 161/3/3
f 163/2/3 153/2/3 160/2/3
f 163/2/3 160/2/3 162/2/3
f 163/2/3 149/2/3 153/2/3
f 163/3/3 154/3/3 149/3/3
f 164/2/3 155/2/3 154/2/3
f 164/3/3 154/3/3 163/3/3
f 165/3/3 156/3/3 155/3/3
f 165/2/3 155/2/3 164/2/3
f 166/2/3 157/2/3 156/2/3
f 166/3/3 156/3/3 165/3/3
f 167/3/3 150/3/3 157/3/3
f 167/2/3 157/2/3 166/2/3
f 168/2/3 116/2/3 150/2/3
f 168/3/3 150/3/3 167/3/3
f 169/2/3 113/2/3 109/2/3
f 169/2/3 166/2/3 165/2/3
f 169/2/3 168/2/3 167/2/3
f 169/2/3 161/2/3 113/2/3
f 169/2/3 164/2/3 163/2/3
f 169/2/3 163/2/3 162/2/3
f 169/2/3 165/2/3 164/2/3
f 169/2/3 162/2/3 161/2/3
f 169/2/3 167/2/3 166/2/3
f 170/2/3 168/2/3 169/2/3
f 171/2/3 168/2/3 170/2/3
f 172/2/3 168/2/3 171/2/3
f 173/2/3 169/2/3 109/2/3
f 173/3/3 170/3/3 169/3/3
f 174/2/3 171/2/3 170/2/3
f 174/3/3 170/3/3 173/3/3
f 175/2/3 171/2/3 174/2/3
f 176/3/3 172/3/3 171/3/3
f 176/2/3 171/2/3 175/2/3
f 177/2/3 168/2/3 172/2/3
f 177/3/3 172/3/3 176/3/3
f 178/2/3 168/2/3 177/2/3
f 179/2/3 168/2/3 178/2/3
f 180/2/3 116/2/3 168/2/3
f 180/2/3 168/2/3 179/2/3
f 181/2/3 175/2/3 174/2/3
f 181/2/3 173/2/3 109/2/3
f 181/2/3 174/2/3 173/2/3
f 182/2/3 175/2/3 181/2/3
f 183/2/3 179/2/3 178/2/3
f 183/3/3 180/3/3 179/3/3
f 184/3/3 180/3/3 183/3/3
f 185/3/3 180/3/3 184/3/3
f 186/3/3 180/3/3 185/3/3
f 187/3/3 182/3/3 181/3/3
f 187/2/3 181/2/3 109/2/3
f 188/2/3 175/2/3 182/2/3
f 188/3/3 182/3/3 187/3/3
f 189/3/3 176/3/3 175/3/3
f 189/2/3 175/2/3 188/2/3
f 190/2/3 177/2/3 176/2/3
f 190/3/3 176/3/3 189/3/3
f 191/3/3 178/3/3 177/3/3
f 191/2/3 177/2/3 190/2/3
f 192/2/3 183/2/3 178/2/3
f 192/3/3 178/3/3 191/3/3
f 192/2/3 184/2/3 183/2/3
f 193/2/3 184/2/3 192/2/3
f 194/3/3 185/3/3 184/3/3
f 194/2/3 184/2/3 193/2/3
f 195/2/3 186/2/3 185/2/3
f 195/3/3 185/3/3 194/3/3
f 196/3/3 180/3/3 186/3/3
f 196/2/3 186/2/3 195/2/3
f 197/2/3 116/2/3 180/2/3
f 197/3/3 180/3/3 196/3/3
f 198/2/3 188/2/3 187/2/3
f 198/3/3 189/3/3 188/3/3
f 199/2/3 190/2/3 189/2/3
f 199/3/3 189/3/3 198/3/3
f 199/2/3 191/2/3 190/2/3
f 199/2/3 192/2/3 191/2/3
f 199/2/3 193/2/3 192/2/3
f 200/2/3 193/2/3 199/2/3
f 201/3/3 194/3/3 193/3/3
f 201/2/3 193/2/3 200/2/3
f 202/2/3 195/2/3 194/2/3
f 202/3/3 194/3/3 201/3/3
f 203/3/3 196/3/3 195/3/3
f 203/2/3 195/2/3 202/2/3
f 204/2/3 197/2/3 196/2/3
f 204/3/3 196/3/3 203/3/3
f 205/3/3 201/3/3 200/3/3
f 205/2/3 200/2/3 199/2/3
f 205/2/3 199/2/3 198/2/3
f 206/2/3 202/2/3 201/2/3
f 206/3/3 201/3/3 205/3/3
f 206/2/3 203/2/3 202/2/3
f 206/2/3 204/2/3 203/2/3
f 207/2/3 205/2/3 198/2/3
f 207/2/3 206/2/3 205/2/3
f 208/2/3 204/2/3 206/2/3
f 208/2/3 206/2/3 207/2/3
f 209/2/3 197/2/3 204/2/3
f 209/2/3 204/2/3 208/2/3
f 210/2/3 116/2/3 197/2/3
f 210/2/3 197/2/3 209/2/3
f 211/2/3 207/2/3 198/2/3
f 211/3/3 208/3/3 207/3/3
f 212/2/3 209/2/3 208/2/3
f 212/3/3 208/3/3 211/3/3
f 213/3/3 210/3/3 209/3/3
f 213/2/3 209/2/3 212/2/3
f 214/2/3 116/2/3 210/2/3
f 214/3/3 210/3/3 213/3/3
f 215/2/3 211/2/3 198/2/3
f 215/2/3 213/2/3 212/2/3
f 215/2/3 214/2/3 213/2/3
f 215/2/3 212/2/3 211/2/3
f 216/2/3 116/2/3 214/2/3
f 216/2/3 214/2/3 215/2/3
f 217/2/3 118/2/3 117/2/3
f 218/2/3 118/2/3 217/2/3
f 220/2/3 110/2/3 120/2/3
f 221/2/3 215/2/3 198/2/3
f 222/2/3 215/2/3 221/2/3
f 223/2/3 221/2/3 198/2/3
f 224/2/3 220/2/3 219/2/3
f 225/2/3 223/2/3 198/2/3
f 225/2/3 224/2/3 223/2/3
f 225/2/3 187/2/3 109/2/3
f 225/2/3 198/2/3 187/2/3
f 226/2/3 220/2/3 224/2/3
f 226/2/3 224/2/3 225/2/3
f 226/2/3 110/2/3 220/2/3
f 227/2/4 228/2/4 229/2/4
f 229/2/4 228/2/4 230/2/4
f 227/2/4 229/2/4 231/2/4
f 231/2/4 232/2/4 233/2/4
f 230/2/4 228/2/4 237/2/4
f 237/2/4 228/2/4 238/2/4
f 233/2/4 234/2/4 239/2/4
f 239/2/4 234/2/4 240/2/4
f 240/2/4 234/2/4 241/2/4
f 241/2/4 234/2/4 242/2/4
f 233/2/4 239/2/4 243/2/4
f 239/3/4 240/3/4 243/3/4
f 240/2/4 241/2/4 244/2/4
f 243/3/4 240/3/4 244/3/4
f 241/3/4 242/3/4 245/3/4
f 244/2/4 241/2/4 245/2/4
f 242/2/4 234/2/4 246/2/4
f 245/3/4 242/3/4 246/3/4
f 244/2/4 245/2/4 247/2/4
f 243/2/4 244/2/4 247/2/4
f 245/2/4 246/2/4 247/2/4
f 233/2/4 243/2/4 247/2/4
f 247/2/4 246/2/4 248/2/4
f 227/2/4 231/2/4 249/2/4
f 231/2/4 233/2/4 249/2/4
f 233/2/4 247/2/4 249/2/4
f 249/2/4 247/2/4 250/2/4
f 247/3/4 248/3/4 251/3/4
f 250/2/4 247/2/4 251/2/4
f 248/2/4 246/2/4 252/2/4
f 251/3/4 248/3/4 252/3/4
f 252/2/4 246/2/4 253/2/4
f 253/2/4 246/2/4 254/2/4
f 254/2/4 246/2/4 255/2/4
f 227/2/4 249/2/4 256/2/4
f 249/3/4 250/3/4 257/3/4
f 256/2/4 249/2/4 257/2/4
f 250/2/4 251/2/4 258/2/4
f 257/3/4 250/3/4 258/3/4
f 251/2/4 252/2/4 258/2/4
f 258/2/4 252/2/4 259/2/4
f 259/2/4 252/2/4 260/2/4
f 260/2/4 252/2/4 261/2/4
f 252/3/4 253/3/4 262/3/4
f 261/2/4 252/2/4 262/2/4
f 253/2/4 254/2/4 263/2/4
f 262/3/4 253/3/4 263/3/4
f 254/3/4 255/3/4 264/3/4
f 263/2/4 254/2/4 264/2/4
f 255/2/4 246/2/4 265/2/4
f 264/3/4 255/3/4 265/3/4
f 246/2/4 234/2/4 266/2/4
f 265/2/4 246/2/4 266/2/4
f 256/3/4 257/3/4 267/3/4
f 227/2/4 256/2/4 267/2/4
f 257/2/4 258/2/4 268/2/4
f 267/3/4 257/3/4 268/3/4
f 262/2/4 263/2/4 269/2/4
f 261/2/4 262/2/4 269/2/4
f 263/3/4 264/3/4 270/3/4
f 269/2/4 263/2/4 270/2/4
f 264/2/4 265/2/4 271/2/4
f 270/3/4 264/3/4 271/3/4
f 265/3/4 266/3/4 272/3/4
f 271/2/4 265/2/4 272/2/4
f 267/2/4 268/2/4 273/2/4
f 227/2/4 267/2/4 273/2/4
f 268/2/4 258/2/4 274/2/4
f 273/2/4 268/2/4 274/2/4
f 258/3/4 259/3/4 275/3/4
f 274/2/4 258/2/4 275/2/4
f 259/2/4 260/2/4 276/2/4
f 275/3/4 259/3/4 276/3/4
f 260/3/4 261/3/4 277/3/4
f 276/2/4 260/2/4 277/2/4
f 261/2/4 269/2/4 278/2/4
f 277/3/4 261/3/4 278/3/4
f 270/3/4 271/3/4 279/3/4
f 278/2/4 269/2/4 279/2/4
f 269/3/4 270/3/4 279/3/4
f 271/3/4 272/3/4 279/3/4
f 266/2/4 234/2/4 280/2/4
f 279/3/4 272/3/4 280/3/4
f 272/3/4 266/3/4 280/3/4
f 227/2/4 273/2/4 281/2/4
f 273/3/4 274/3/4 281/3/4
f 274/2/4 275/2/4 282/2/4
f 281/3/4 274/3/4 282/3/4
f 275/2/4 276/2/4 282/2/4
f 276/3/4 277/3/4 283/3/4
f 282/2/4 276/2/4 283/2/4
f 278/2/4 279/2/4 284/2/4
f 283/3/4 277/3/4 284/3/4
f 277/2/4 278/2/4 284/2/4
f 279/2/4 280/2/4 284/2/4
f 282/2/4 283/2/4 285/2/4
f 281/2/4 282/2/4 285/2/4
f 283/2/4 284/2/4 285/2/4
f 285/2/4 284/2/4 286/2/4
f 284/2/4 280/2/4 287/2/4
f 286/2/4 284/2/4 287/2/4
f 287/2/4 280/2/4 288/2/4
f 288/2/4 280/2/4 289/2/4
f 289/2/4 280/2/4 290/2/4
f 290/2/4 280/2/4 291/2/4
f 280/2/4 234/2/4 292/2/4
f 291/2/4 280/2/4 292/2/4
f 285/3/4 286/3/4 293/3/4
f 281/2/4 285/2/4 293/2/4
f 286/2/4 287/2/4 294/2/4
f 293/3/4 286/3/4 294/3/4
f 294/2/4 287/2/4 295/2/4
f 294/3/4 295/3/4 296/3/4
f 295/2/4 287/2/4 297/2/4
f 296/3/4 295/3/4 297/3/4
f 297/2/4 287/2/4 298/2/4
f 287/3/4 288/3/4 299/3/4
f 288/2/4 289/2/4 299/2/4
f 289/3/4 290/3/4 300/3/4
f 299/2/4 289/2/4 300/2/4
f 290/2/4 291/2/4 301/2/4
f 300/3/4 290/3/4 301/3/4
f 291/3/4 292/3/4 302/3/4
f 301/2/4 291/2/4 302/2/4
f 294/3/4 296/3/4 303/3/4
f 296/2/4 297/2/4 303/2/4
f 297/3/4 298/3/4 304/3/4
f 303/2/4 297/2/4 304/2/4
f 298/2/4 287/2/4 305/2/4
f 304/3/4 298/3/4 305/3/4
f 299/3/4 300/3/4 306/3/4
f 305/2/4 287/2/4 306/2/4
f 300/3/4 301/3/4 306/3/4
f 301/3/4 302/3/4 306/3/4
f 287/3/4 299/3/4 306/3/4
f 292/2/4 234/2/4 307/2/4
f 306/3/4 302/3/4 307/3/4
f 302/3/4 292/3/4 307/3/4
f 293/2/4 294/2/4 308/2/4
f 281/2/4 293/2/4 308/2/4
f 303/3/4 304/3/4 309/3/4
f 308/2/4 294/2/4 309/2/4
f 294/3/4 303/3/4 309/3/4
f 305/2/4 306/2/4 310/2/4
f 309/3/4 304/3/4 310/3/4
f 304/2/4 305/2/4 310/2/4
f 306/2/4 307/2/4 310/2/4
f 310/2/4 307/2/4 311/2/4
f 311/2/4 307/2/4 312/2/4
f 308/3/4 309/3/4 313/3/4
f 281/2/4 308/2/4 313/2/4
f 309/2/4 310/2/4 314/2/4
f 313/3/4 309/3/4 314/3/4
f 310/2/4 311/2/4 314/2/4
f 314/2/4 311/2/4 315/2/4
f 311/3/4 312/3/4 316/3/4
f 315/2/4 311/2/4 316/2/4
f 316/3/4 312/3/4 317/3/4
f 312/2/4 307/2/4 318/2/4
f 317/3/4 312/3/4 318/3/4
f 314/2/4 315/2/4 319/2/4
f 313/2/4 314/2/4 319/2/4
f 316/3/4 317/3/4 320/3/4
f 319/2/4 315/2/4 320/2/4
f 315/3/4 316/3/4 320/3/4
f 320/3/4 317/3/4 321/3/4
f 317/2/4 318/2/4 322/2/4
f 321/3/4 317/3/4 322/3/4
f 313/2/4 319/2/4 323/2/4
f 320/3/4 321/3/4 323/3/4
f 319/3/4 320/3/4 323/3/4
f 323/3/4 321/3/4 324/3/4
f 321/2/4 322/2/4 325/2/4
f 324/3/4 321/3/4 325/3/4
f 322/2/4 318/2/4 326/2/4
f 325/2/4 322/2/4 326/2/4
f 324/3/4 325/3/4 327/3/4
f 323/2/4 324/2/4 327/2/4
f 325/3/4 326/3/4 327/3/4
f 327/3/4 326/3/4 328/3/4
f 326/2/4 318/2/4 329/2/4
f 328/3/4 326/3/4 329/3/4
f 318/2/4 307/2/4 330/2/4
f 329/2/4 318/2/4 330/2/4
f 327/2/4 328/2/4 331/2/4
f 328/3/4 329/3/4 331/3/4
f 329/3/4 330/3/4 331/3/4
f 330/2/4 307/2/4 332/2/4
f 331/3/4 330/3/4 332/3/4
f 327/2/4 331/2/4 333/2/4
f 323/2/4 327/2/4 333/2/4
f 331/2/4 332/2/4 333/2/4
f 313/2/4 323/2/4 333/2/4
f 281/2/4 313/2/4 333/2/4
f 332/2/4 307/2/4 334/2/4
f 333/2/4 332/2/4 334/2/4
f 307/2/4 234/2/4 334/2/4
f 235/2/4 236/2/4 335/2/4
f 335/2/4 236/2/4 336/2/4
f 238/2/4 228/2/4 338/2/4
f 281/2/4 333/2/4 339/2/4
f 227/2/4 281/2/4 339/2/4
f 339/2/4 333/2/4 340/2/4
f 227/2/4 339/2/4 341/2/4
f 337/2/4 338/2/4 342/2/4
f 227/2/4 341/2/4 343/2/4
f 341/2/4 342/2/4 343/2/4
f 342/2/4 338/2/4 344/2/4
f 343/2/4 342/2/4 344/2/4
f 338/2/4 228/2/4 344/2/4
f 345/4/4 346/4/4 347/4/4
f 347/4/4 346/4/4 348/4/4
f 348/4/4 346/4/4 349/4/4
f 349/4/4 346/4/4 350/4/4
f 350/4/4 346/4/4 351/4/4
f 351/4/4 346/4/4 352/4/4
f 352/4/4 346/4/4 353/4/4
f 350/4/4 351/4/4 356/4/4
f 356/4/4 351/4/4 357/4/4
f 353/4/4 354/4/4 358/4/4
f 352/4/4 353/4/4 358/4/4
f 358/4/4 354/4/4 359/4/4
f 359/4/4 354/4/4 360/4/4
f 356/4/4 357/4/4 362/4/4
f 355/4/4 356/4/4 362/4/4
f 358/4/4 359/4/4 362/4/4
f 357/4/4 358/4/4 362/4/4
f 361/4/4 362/4/4 363/4/4
f 362/4/4 359/4/4 364/4/4
f 363/4/4 362/4/4 364/4/4
f 367/2/5 366/2/5 365/2/5
f 368/2/5 366/2/5 367/2/5
f 371/4/5 370/4/5 369/4/5
f 372/4/5 370/4/5 371/4/5
f 375/4/5 374/4/5 373/4/5
f 376/4/5 374/4/5 375/4/5
f 381/4/5 378/4/5 377/4/5
f 382/4/5 378/4/5 381/4/5
f 383/4/5 380/4/5 379/4/5
f 384/4/5 380/4/5 383/4/5
f 389/4/5 386/4/5 385/4/5
f 390/4/5 386/4/5 389/4/5
f 391/4/5 388/4/5 387/4/5
f 392/4/5 388/4/5 391/4/5
f 395/4/5 394/4/5 393/4/5
f 396/4/5 394/4/5 395/4/5
f 399/4/5 398/4/5 397/4/5
f 400/4/5 398/4/5 399/4/5
f 403/4/5 402/4/5 401/4/5
f 404/4/5 402/4/5 403/4/5
f 407/4/5 406/4/5 405/4/5
f 408/4/5 406/4/5 407/4/5
f 411/4/5 410/4/5 409/4/5
f 412/4/5 410/4/5 411/4/5
f 415/4/5 414/4/5 413/4/5
f 416/4/5 414/4/5 415/4/5
f 417/4/6 418/4/6 419/4/6
f 419/4/6 418/4/6 420/4/6
f 421/4/6 422/4/6 423/4/6
f 423/4/6 422/4/6 424/4/6
f 425/4/6 426/4/6 429/4/6
f 429/4/6 426/4/6 430/4/6
f 427/4/6 428/4/6 431/4/6
f 431/4/6 428/4/6 432/4/6
f 433/4/6 434/4/6 437/4/6
f 437/4/6 434/4/6 438/4/6
f 435/4/6 436/4/6 439/4/6
f 439/4/6 436/4/6 440/4/6
f 441/4/6 442/4/6 443/4/6
f 443/4/6 442/4/6 444/4/6
f 445/4/6 446/4/6 447/4/6
f 447/4/6 446/4/6 448/4/6
f 449/2/6 450/2/6 451/2/6
f 451/2/6 450/2/6 452/2/6
