# MagicaVoxel @ Ephtracy

# group
g speed_plus

# material
mtllib speed_plus.mtl
usemtl palette

# normals
vn -1 0 0
vn 1 0 0
vn 0 0 1
vn 0 0 -1
vn 0 -1 0
vn 0 1 0

# texcoords
vt 0.849609 0.5
vt 0.880859 0.5
vt 0.958984 0.5

# verts
v -15 0 0.5
v -15 0 -0.5
v -15 30 0.5
v -15 30 -0.5
v 15 0 0.5
v 15 0 -0.5
v 15 30 0.5
v 15 30 -0.5
v -15 0 0.5
v -15 30 0.5
v -7 14 0.5
v -7 16 0.5
v -7 24 0.5
v -7 25 0.5
v -6 16 0.5
v -6 17 0.5
v -6 24 0.5
v -6 25 0.5
v -6 26 0.5
v -5 17 0.5
v -5 18 0.5
v -5 20 0.5
v -5 21 0.5
v -5 23 0.5
v -5 24 0.5
v -5 25 0.5
v -5 26 0.5
v -5 27 0.5
v -4 18 0.5
v -4 19 0.5
v -4 20 0.5
v -4 21 0.5
v -4 22 0.5
v -4 23 0.5
v -4 24 0.5
v -4 25 0.5
v -4 26 0.5
v -4 27 0.5
v -4 28 0.5
v -3 19 0.5
v -3 20 0.5
v -3 21 0.5
v -3 22 0.5
v -3 23 0.5
v -3 24 0.5
v -3 25 0.5
v -3 26 0.5
v -3 27 0.5
v -3 28 0.5
v -3 29 0.5
v -2 1 0.5
v -2 14 0.5
v -2 20 0.5
v -2 21 0.5
v -2 22 0.5
v -2 23 0.5
v -2 24 0.5
v -2 25 0.5
v -2 26 0.5
v -2 27 0.5
v -2 28 0.5
v -2 29 0.5
v -2 30 0.5
v -1 21 0.5
v -1 22 0.5
v -1 23 0.5
v -1 24 0.5
v -1 25 0.5
v -1 26 0.5
v -1 27 0.5
v -1 28 0.5
v 1 21 0.5
v 1 22 0.5
v 1 23 0.5
v 1 24 0.5
v 1 25 0.5
v 1 26 0.5
v 1 27 0.5
v 1 28 0.5
v 2 1 0.5
v 2 14 0.5
v 2 20 0.5
v 2 21 0.5
v 2 22 0.5
v 2 23 0.5
v 2 24 0.5
v 2 25 0.5
v 2 26 0.5
v 2 27 0.5
v 2 28 0.5
v 2 29 0.5
v 2 30 0.5
v 3 19 0.5
v 3 20 0.5
v 3 21 0.5
v 3 22 0.5
v 3 23 0.5
v 3 24 0.5
v 3 25 0.5
v 3 26 0.5
v 3 27 0.5
v 3 28 0.5
v 3 29 0.5
v 4 18 0.5
v 4 19 0.5
v 4 20 0.5
v 4 21 0.5
v 4 22 0.5
v 4 23 0.5
v 4 24 0.5
v 4 25 0.5
v 4 26 0.5
v 4 27 0.5
v 4 28 0.5
v 5 17 0.5
v 5 18 0.5
v 5 20 0.5
v 5 21 0.5
v 5 23 0.5
v 5 24 0.5
v 5 25 0.5
v 5 26 0.5
v 5 27 0.5
v 6 16 0.5
v 6 17 0.5
v 6 24 0.5
v 6 25 0.5
v 6 26 0.5
v 7 14 0.5
v 7 16 0.5
v 7 24 0.5
v 7 25 0.5
v 15 0 0.5
v 15 30 0.5
v -15 0 -0.5
v -15 30 -0.5
v -7 14 -0.5
v -7 16 -0.5
v -7 24 -0.5
v -7 25 -0.5
v -6 16 -0.5
v -6 17 -0.5
v -6 24 -0.5
v -6 25 -0.5
v -6 26 -0.5
v -5 17 -0.5
v -5 18 -0.5
v -5 20 -0.5
v -5 21 -0.5
v -5 23 -0.5
v -5 24 -0.5
v -5 25 -0.5
v -5 26 -0.5
v -5 27 -0.5
v -4 18 -0.5
v -4 19 -0.5
v -4 20 -0.5
v -4 21 -0.5
v -4 22 -0.5
v -4 23 -0.5
v -4 24 -0.5
v -4 25 -0.5
v -4 26 -0.5
v -4 27 -0.5
v -4 28 -0.5
v -3 19 -0.5
v -3 20 -0.5
v -3 21 -0.5
v -3 22 -0.5
v -3 23 -0.5
v -3 24 -0.5
v -3 25 -0.5
v -3 26 -0.5
v -3 27 -0.5
v -3 28 -0.5
v -3 29 -0.5
v -2 1 -0.5
v -2 14 -0.5
v -2 20 -0.5
v -2 21 -0.5
v -2 22 -0.5
v -2 23 -0.5
v -2 24 -0.5
v -2 25 -0.5
v -2 26 -0.5
v -2 27 -0.5
v -2 28 -0.5
v -2 29 -0.5
v -2 30 -0.5
v -1 21 -0.5
v -1 22 -0.5
v -1 23 -0.5
v -1 24 -0.5
v -1 25 -0.5
v -1 26 -0.5
v -1 27 -0.5
v -1 28 -0.5
v 1 21 -0.5
v 1 22 -0.5
v 1 23 -0.5
v 1 24 -0.5
v 1 25 -0.5
v 1 26 -0.5
v 1 27 -0.5
v 1 28 -0.5
v 2 1 -0.5
v 2 14 -0.5
v 2 20 -0.5
v 2 21 -0.5
v 2 22 -0.5
v 2 23 -0.5
v 2 24 -0.5
v 2 25 -0.5
v 2 26 -0.5
v 2 27 -0.5
v 2 28 -0.5
v 2 29 -0.5
v 2 30 -0.5
v 3 19 -0.5
v 3 20 -0.5
v 3 21 -0.5
v 3 22 -0.5
v 3 23 -0.5
v 3 24 -0.5
v 3 25 -0.5
v 3 26 -0.5
v 3 27 -0.5
v 3 28 -0.5
v 3 29 -0.5
v 4 18 -0.5
v 4 19 -0.5
v 4 20 -0.5
v 4 21 -0.5
v 4 22 -0.5
v 4 23 -0.5
v 4 24 -0.5
v 4 25 -0.5
v 4 26 -0.5
v 4 27 -0.5
v 4 28 -0.5
v 5 17 -0.5
v 5 18 -0.5
v 5 20 -0.5
v 5 21 -0.5
v 5 23 -0.5
v 5 24 -0.5
v 5 25 -0.5
v 5 26 -0.5
v 5 27 -0.5
v 6 16 -0.5
v 6 17 -0.5
v 6 24 -0.5
v 6 25 -0.5
v 6 26 -0.5
v 7 14 -0.5
v 7 16 -0.5
v 7 24 -0.5
v 7 25 -0.5
v 15 0 -0.5
v 15 30 -0.5
v -15 0 0.5
v 15 0 0.5
v -15 0 -0.5
v 15 0 -0.5
v -15 30 0.5
v -2 30 0.5
v 2 30 0.5
v 15 30 0.5
v -15 30 -0.5
v -2 30 -0.5
v 2 30 -0.5
v 15 30 -0.5

# faces
f 3/1/1 2/1/1 1/1/1
f 4/1/1 2/1/1 3/1/1
f 5/1/2 6/1/2 7/1/2
f 7/1/2 6/1/2 8/1/2
f 11/1/3 10/1/3 9/1/3
f 12/1/3 10/1/3 11/1/3
f 13/1/3 10/1/3 12/1/3
f 14/1/3 10/1/3 13/1/3
f 15/3/3 12/3/3 11/3/3
f 15/1/3 13/1/3 12/1/3
f 16/1/3 13/1/3 15/1/3
f 17/2/3 14/2/3 13/2/3
f 17/1/3 13/1/3 16/1/3
f 18/1/3 10/1/3 14/1/3
f 18/2/3 14/2/3 17/2/3
f 19/1/3 10/1/3 18/1/3
f 20/1/3 17/1/3 16/1/3
f 20/3/3 16/3/3 15/3/3
f 20/1/3 18/1/3 17/1/3
f 21/1/3 18/1/3 20/1/3
f 22/1/3 18/1/3 21/1/3
f 23/1/3 18/1/3 22/1/3
f 24/1/3 18/1/3 23/1/3
f 25/1/3 18/1/3 24/1/3
f 26/2/3 19/2/3 18/2/3
f 26/1/3 18/1/3 25/1/3
f 27/1/3 10/1/3 19/1/3
f 27/2/3 19/2/3 26/2/3
f 28/1/3 10/1/3 27/1/3
f 29/3/3 21/3/3 20/3/3
f 29/1/3 22/1/3 21/1/3
f 30/1/3 22/1/3 29/1/3
f 31/3/3 23/3/3 22/3/3
f 31/1/3 22/1/3 30/1/3
f 32/1/3 24/1/3 23/1/3
f 32/3/3 23/3/3 31/3/3
f 33/1/3 24/1/3 32/1/3
f 34/3/3 25/3/3 24/3/3
f 34/1/3 24/1/3 33/1/3
f 35/1/3 26/1/3 25/1/3
f 35/3/3 25/3/3 34/3/3
f 35/1/3 27/1/3 26/1/3
f 36/1/3 27/1/3 35/1/3
f 37/2/3 28/2/3 27/2/3
f 37/1/3 27/1/3 36/1/3
f 38/1/3 10/1/3 28/1/3
f 38/2/3 28/2/3 37/2/3
f 39/1/3 10/1/3 38/1/3
f 40/3/3 30/3/3 29/3/3
f 40/1/3 31/1/3 30/1/3
f 40/1/3 32/1/3 31/1/3
f 41/1/3 32/1/3 40/1/3
f 42/3/3 33/3/3 32/3/3
f 42/1/3 32/1/3 41/1/3
f 43/1/3 34/1/3 33/1/3
f 43/3/3 33/3/3 42/3/3
f 43/1/3 35/1/3 34/1/3
f 44/1/3 35/1/3 43/1/3
f 45/3/3 36/3/3 35/3/3
f 45/1/3 35/1/3 44/1/3
f 46/1/3 37/1/3 36/1/3
f 46/3/3 36/3/3 45/3/3
f 46/1/3 38/1/3 37/1/3
f 47/1/3 38/1/3 46/1/3
f 48/2/3 39/2/3 38/2/3
f 48/1/3 38/1/3 47/1/3
f 49/1/3 10/1/3 39/1/3
f 49/2/3 39/2/3 48/2/3
f 50/1/3 10/1/3 49/1/3
f 51/1/3 11/1/3 9/1/3
f 52/3/3 41/3/3 40/3/3
f 52/1/3 11/1/3 51/1/3
f 52/3/3 15/3/3 11/3/3
f 52/3/3 20/3/3 15/3/3
f 52/3/3 29/3/3 20/3/3
f 52/3/3 40/3/3 29/3/3
f 53/1/3 42/1/3 41/1/3
f 53/3/3 41/3/3 52/3/3
f 53/1/3 43/1/3 42/1/3
f 54/1/3 43/1/3 53/1/3
f 55/3/3 44/3/3 43/3/3
f 55/1/3 43/1/3 54/1/3
f 56/1/3 45/1/3 44/1/3
f 56/3/3 44/3/3 55/3/3
f 56/1/3 46/1/3 45/1/3
f 57/1/3 46/1/3 56/1/3
f 58/3/3 47/3/3 46/3/3
f 58/1/3 46/1/3 57/1/3
f 59/1/3 49/1/3 48/1/3
f 59/3/3 47/3/3 58/3/3
f 59/1/3 48/1/3 47/1/3
f 60/1/3 49/1/3 59/1/3
f 61/2/3 50/2/3 49/2/3
f 61/1/3 49/1/3 60/1/3
f 62/1/3 10/1/3 50/1/3
f 62/2/3 50/2/3 61/2/3
f 63/1/3 10/1/3 62/1/3
f 64/3/3 52/3/3 51/3/3
f 64/1/3 55/1/3 54/1/3
f 64/3/3 54/3/3 53/3/3
f 64/1/3 56/1/3 55/1/3
f 64/3/3 53/3/3 52/3/3
f 65/1/3 56/1/3 64/1/3
f 66/3/3 57/3/3 56/3/3
f 66/1/3 56/1/3 65/1/3
f 67/1/3 58/1/3 57/1/3
f 67/3/3 57/3/3 66/3/3
f 67/1/3 59/1/3 58/1/3
f 68/1/3 59/1/3 67/1/3
f 69/3/3 60/3/3 59/3/3
f 69/1/3 59/1/3 68/1/3
f 70/1/3 61/1/3 60/1/3
f 70/3/3 60/3/3 69/3/3
f 70/1/3 62/1/3 61/1/3
f 71/1/3 62/1/3 70/1/3
f 72/3/3 64/3/3 51/3/3
f 72/3/3 65/3/3 64/3/3
f 73/1/3 66/1/3 65/1/3
f 73/3/3 65/3/3 72/3/3
f 73/1/3 67/1/3 66/1/3
f 74/1/3 67/1/3 73/1/3
f 75/3/3 68/3/3 67/3/3
f 75/1/3 67/1/3 74/1/3
f 76/1/3 69/1/3 68/1/3
f 76/3/3 68/3/3 75/3/3
f 76/1/3 70/1/3 69/1/3
f 77/1/3 70/1/3 76/1/3
f 78/3/3 71/3/3 70/3/3
f 78/1/3 70/1/3 77/1/3
f 79/1/3 62/1/3 71/1/3
f 79/3/3 71/3/3 78/3/3
f 80/1/3 51/1/3 9/1/3
f 80/3/3 72/3/3 51/3/3
f 81/3/3 72/3/3 80/3/3
f 82/3/3 72/3/3 81/3/3
f 83/1/3 74/1/3 73/1/3
f 83/3/3 72/3/3 82/3/3
f 83/1/3 73/1/3 72/1/3
f 84/1/3 74/1/3 83/1/3
f 85/3/3 75/3/3 74/3/3
f 85/1/3 74/1/3 84/1/3
f 86/1/3 77/1/3 76/1/3
f 86/3/3 75/3/3 85/3/3
f 86/1/3 76/1/3 75/1/3
f 87/1/3 77/1/3 86/1/3
f 88/3/3 78/3/3 77/3/3
f 88/1/3 77/1/3 87/1/3
f 89/1/3 79/1/3 78/1/3
f 89/3/3 78/3/3 88/3/3
f 90/1/3 62/1/3 79/1/3
f 90/1/3 79/1/3 89/1/3
f 91/2/3 63/2/3 62/2/3
f 91/1/3 62/1/3 90/1/3
f 92/2/3 63/2/3 91/2/3
f 93/3/3 82/3/3 81/3/3
f 94/1/3 84/1/3 83/1/3
f 94/3/3 82/3/3 93/3/3
f 94/1/3 83/1/3 82/1/3
f 95/1/3 84/1/3 94/1/3
f 96/3/3 85/3/3 84/3/3
f 96/1/3 84/1/3 95/1/3
f 97/1/3 87/1/3 86/1/3
f 97/3/3 85/3/3 96/3/3
f 97/1/3 86/1/3 85/1/3
f 98/1/3 87/1/3 97/1/3
f 99/3/3 88/3/3 87/3/3
f 99/1/3 87/1/3 98/1/3
f 100/1/3 89/1/3 88/1/3
f 100/3/3 88/3/3 99/3/3
f 100/1/3 90/1/3 89/1/3
f 101/1/3 90/1/3 100/1/3
f 102/2/3 91/2/3 90/2/3
f 102/1/3 90/1/3 101/1/3
f 103/1/3 92/1/3 91/1/3
f 103/2/3 91/2/3 102/2/3
f 104/3/3 93/3/3 81/3/3
f 105/1/3 95/1/3 94/1/3
f 105/3/3 93/3/3 104/3/3
f 105/1/3 94/1/3 93/1/3
f 106/1/3 95/1/3 105/1/3
f 107/3/3 96/3/3 95/3/3
f 107/1/3 95/1/3 106/1/3
f 108/1/3 98/1/3 97/1/3
f 108/3/3 96/3/3 107/3/3
f 108/1/3 97/1/3 96/1/3
f 109/1/3 98/1/3 108/1/3
f 110/3/3 99/3/3 98/3/3
f 110/1/3 98/1/3 109/1/3
f 111/1/3 101/1/3 100/1/3
f 111/3/3 99/3/3 110/3/3
f 111/1/3 100/1/3 99/1/3
f 112/1/3 101/1/3 111/1/3
f 113/2/3 102/2/3 101/2/3
f 113/1/3 101/1/3 112/1/3
f 114/1/3 103/1/3 102/1/3
f 114/2/3 102/2/3 113/2/3
f 115/3/3 104/3/3 81/3/3
f 116/1/3 105/1/3 104/1/3
f 116/3/3 104/3/3 115/3/3
f 116/1/3 106/1/3 105/1/3
f 117/3/3 107/3/3 106/3/3
f 117/1/3 106/1/3 116/1/3
f 118/1/3 109/1/3 108/1/3
f 118/3/3 107/3/3 117/3/3
f 118/1/3 108/1/3 107/1/3
f 119/3/3 110/3/3 109/3/3
f 119/1/3 109/1/3 118/1/3
f 120/1/3 112/1/3 111/1/3
f 120/3/3 110/3/3 119/3/3
f 120/1/3 111/1/3 110/1/3
f 121/1/3 112/1/3 120/1/3
f 122/2/3 113/2/3 112/2/3
f 122/1/3 112/1/3 121/1/3
f 123/1/3 114/1/3 113/1/3
f 123/2/3 113/2/3 122/2/3
f 124/3/3 115/3/3 81/3/3
f 125/1/3 117/1/3 116/1/3
f 125/3/3 115/3/3 124/3/3
f 125/1/3 116/1/3 115/1/3
f 125/1/3 119/1/3 118/1/3
f 125/1/3 120/1/3 119/1/3
f 125/1/3 118/1/3 117/1/3
f 125/1/3 121/1/3 120/1/3
f 126/1/3 121/1/3 125/1/3
f 127/2/3 122/2/3 121/2/3
f 127/1/3 121/1/3 126/1/3
f 128/1/3 123/1/3 122/1/3
f 128/2/3 122/2/3 127/2/3
f 129/3/3 124/3/3 81/3/3
f 129/1/3 81/1/3 80/1/3
f 130/1/3 126/1/3 125/1/3
f 130/3/3 124/3/3 129/3/3
f 130/1/3 125/1/3 124/1/3
f 131/2/3 127/2/3 126/2/3
f 131/1/3 126/1/3 130/1/3
f 132/1/3 128/1/3 127/1/3
f 132/2/3 127/2/3 131/2/3
f 133/1/3 130/1/3 129/1/3
f 133/1/3 131/1/3 130/1/3
f 133/1/3 132/1/3 131/1/3
f 133/1/3 80/1/3 9/1/3
f 133/1/3 129/1/3 80/1/3
f 134/1/3 92/1/3 103/1/3
f 134/1/3 132/1/3 133/1/3
f 134/1/3 123/1/3 128/1/3
f 134/1/3 103/1/3 114/1/3
f 134/1/3 114/1/3 123/1/3
f 134/1/3 128/1/3 132/1/3
f 135/1/4 136/1/4 137/1/4
f 137/1/4 136/1/4 138/1/4
f 138/1/4 136/1/4 139/1/4
f 139/1/4 136/1/4 140/1/4
f 137/3/4 138/3/4 141/3/4
f 138/1/4 139/1/4 141/1/4
f 141/1/4 139/1/4 142/1/4
f 139/2/4 140/2/4 143/2/4
f 142/1/4 139/1/4 143/1/4
f 140/1/4 136/1/4 144/1/4
f 143/2/4 140/2/4 144/2/4
f 144/1/4 136/1/4 145/1/4
f 142/1/4 143/1/4 146/1/4
f 141/3/4 142/3/4 146/3/4
f 143/1/4 144/1/4 146/1/4
f 146/1/4 144/1/4 147/1/4
f 147/1/4 144/1/4 148/1/4
f 148/1/4 144/1/4 149/1/4
f 149/1/4 144/1/4 150/1/4
f 150/1/4 144/1/4 151/1/4
f 144/2/4 145/2/4 152/2/4
f 151/1/4 144/1/4 152/1/4
f 145/1/4 136/1/4 153/1/4
f 152/2/4 145/2/4 153/2/4
f 153/1/4 136/1/4 154/1/4
f 146/3/4 147/3/4 155/3/4
f 147/1/4 148/1/4 155/1/4
f 155/1/4 148/1/4 156/1/4
f 148/3/4 149/3/4 157/3/4
f 156/1/4 148/1/4 157/1/4
f 149/1/4 150/1/4 158/1/4
f 157/3/4 149/3/4 158/3/4
f 158/1/4 150/1/4 159/1/4
f 150/3/4 151/3/4 160/3/4
f 159/1/4 150/1/4 160/1/4
f 151/1/4 152/1/4 161/1/4
f 160/3/4 151/3/4 161/3/4
f 152/1/4 153/1/4 161/1/4
f 161/1/4 153/1/4 162/1/4
f 153/2/4 154/2/4 163/2/4
f 162/1/4 153/1/4 163/1/4
f 154/1/4 136/1/4 164/1/4
f 163/2/4 154/2/4 164/2/4
f 164/1/4 136/1/4 165/1/4
f 155/3/4 156/3/4 166/3/4
f 156/1/4 157/1/4 166/1/4
f 157/1/4 158/1/4 166/1/4
f 166/1/4 158/1/4 167/1/4
f 158/3/4 159/3/4 168/3/4
f 167/1/4 158/1/4 168/1/4
f 159/1/4 160/1/4 169/1/4
f 168/3/4 159/3/4 169/3/4
f 160/1/4 161/1/4 169/1/4
f 169/1/4 161/1/4 170/1/4
f 161/3/4 162/3/4 171/3/4
f 170/1/4 161/1/4 171/1/4
f 162/1/4 163/1/4 172/1/4
f 171/3/4 162/3/4 172/3/4
f 163/1/4 164/1/4 172/1/4
f 172/1/4 164/1/4 173/1/4
f 164/2/4 165/2/4 174/2/4
f 173/1/4 164/1/4 174/1/4
f 165/1/4 136/1/4 175/1/4
f 174/2/4 165/2/4 175/2/4
f 175/1/4 136/1/4 176/1/4
f 135/1/4 137/1/4 177/1/4
f 166/3/4 167/3/4 178/3/4
f 177/1/4 137/1/4 178/1/4
f 137/3/4 141/3/4 178/3/4
f 141/3/4 146/3/4 178/3/4
f 146/3/4 155/3/4 178/3/4
f 155/3/4 166/3/4 178/3/4
f 167/1/4 168/1/4 179/1/4
f 178/3/4 167/3/4 179/3/4
f 168/1/4 169/1/4 179/1/4
f 179/1/4 169/1/4 180/1/4
f 169/3/4 170/3/4 181/3/4
f 180/1/4 169/1/4 181/1/4
f 170/1/4 171/1/4 182/1/4
f 181/3/4 170/3/4 182/3/4
f 171/1/4 172/1/4 182/1/4
f 182/1/4 172/1/4 183/1/4
f 172/3/4 173/3/4 184/3/4
f 183/1/4 172/1/4 184/1/4
f 174/1/4 175/1/4 185/1/4
f 184/3/4 173/3/4 185/3/4
f 173/1/4 174/1/4 185/1/4
f 185/1/4 175/1/4 186/1/4
f 175/2/4 176/2/4 187/2/4
f 186/1/4 175/1/4 187/1/4
f 176/1/4 136/1/4 188/1/4
f 187/2/4 176/2/4 188/2/4
f 188/1/4 136/1/4 189/1/4
f 177/3/4 178/3/4 190/3/4
f 180/1/4 181/1/4 190/1/4
f 179/3/4 180/3/4 190/3/4
f 181/1/4 182/1/4 190/1/4
f 178/3/4 179/3/4 190/3/4
f 190/1/4 182/1/4 191/1/4
f 182/3/4 183/3/4 192/3/4
f 191/1/4 182/1/4 192/1/4
f 183/1/4 184/1/4 193/1/4
f 192/3/4 183/3/4 193/3/4
f 184/1/4 185/1/4 193/1/4
f 193/1/4 185/1/4 194/1/4
f 185/3/4 186/3/4 195/3/4
f 194/1/4 185/1/4 195/1/4
f 186/1/4 187/1/4 196/1/4
f 195/3/4 186/3/4 196/3/4
f 187/1/4 188/1/4 196/1/4
f 196/1/4 188/1/4 197/1/4
f 177/3/4 190/3/4 198/3/4
f 190/3/4 191/3/4 198/3/4
f 191/1/4 192/1/4 199/1/4
f 198/3/4 191/3/4 199/3/4
f 192/1/4 193/1/4 199/1/4
f 199/1/4 193/1/4 200/1/4
f 193/3/4 194/3/4 201/3/4
f 200/1/4 193/1/4 201/1/4
f 194/1/4 195/1/4 202/1/4
f 201/3/4 194/3/4 202/3/4
f 195/1/4 196/1/4 202/1/4
f 202/1/4 196/1/4 203/1/4
f 196/3/4 197/3/4 204/3/4
f 203/1/4 196/1/4 204/1/4
f 197/1/4 188/1/4 205/1/4
f 204/3/4 197/3/4 205/3/4
f 135/1/4 177/1/4 206/1/4
f 177/3/4 198/3/4 206/3/4
f 206/3/4 198/3/4 207/3/4
f 207/3/4 198/3/4 208/3/4
f 199/1/4 200/1/4 209/1/4
f 208/3/4 198/3/4 209/3/4
f 198/1/4 199/1/4 209/1/4
f 209/1/4 200/1/4 210/1/4
f 200/3/4 201/3/4 211/3/4
f 210/1/4 200/1/4 211/1/4
f 202/1/4 203/1/4 212/1/4
f 211/3/4 201/3/4 212/3/4
f 201/1/4 202/1/4 212/1/4
f 212/1/4 203/1/4 213/1/4
f 203/3/4 204/3/4 214/3/4
f 213/1/4 203/1/4 214/1/4
f 204/1/4 205/1/4 215/1/4
f 214/3/4 204/3/4 215/3/4
f 205/1/4 188/1/4 216/1/4
f 215/1/4 205/1/4 216/1/4
f 188/2/4 189/2/4 217/2/4
f 216/1/4 188/1/4 217/1/4
f 217/2/4 189/2/4 218/2/4
f 207/3/4 208/3/4 219/3/4
f 209/1/4 210/1/4 220/1/4
f 219/3/4 208/3/4 220/3/4
f 208/1/4 209/1/4 220/1/4
f 220/1/4 210/1/4 221/1/4
f 210/3/4 211/3/4 222/3/4
f 221/1/4 210/1/4 222/1/4
f 212/1/4 213/1/4 223/1/4
f 222/3/4 211/3/4 223/3/4
f 211/1/4 212/1/4 223/1/4
f 223/1/4 213/1/4 224/1/4
f 213/3/4 214/3/4 225/3/4
f 224/1/4 213/1/4 225/1/4
f 214/1/4 215/1/4 226/1/4
f 225/3/4 214/3/4 226/3/4
f 215/1/4 216/1/4 226/1/4
f 226/1/4 216/1/4 227/1/4
f 216/2/4 217/2/4 228/2/4
f 227/1/4 216/1/4 228/1/4
f 217/1/4 218/1/4 229/1/4
f 228/2/4 217/2/4 229/2/4
f 207/3/4 219/3/4 230/3/4
f 220/1/4 221/1/4 231/1/4
f 230/3/4 219/3/4 231/3/4
f 219/1/4 220/1/4 231/1/4
f 231/1/4 221/1/4 232/1/4
f 221/3/4 222/3/4 233/3/4
f 232/1/4 221/1/4 233/1/4
f 223/1/4 224/1/4 234/1/4
f 233/3/4 222/3/4 234/3/4
f 222/1/4 223/1/4 234/1/4
f 234/1/4 224/1/4 235/1/4
f 224/3/4 225/3/4 236/3/4
f 235/1/4 224/1/4 236/1/4
f 226/1/4 227/1/4 237/1/4
f 236/3/4 225/3/4 237/3/4
f 225/1/4 226/1/4 237/1/4
f 237/1/4 227/1/4 238/1/4
f 227/2/4 228/2/4 239/2/4
f 238/1/4 227/1/4 239/1/4
f 228/1/4 229/1/4 240/1/4
f 239/2/4 228/2/4 240/2/4
f 207/3/4 230/3/4 241/3/4
f 230/1/4 231/1/4 242/1/4
f 241/3/4 230/3/4 242/3/4
f 231/1/4 232/1/4 242/1/4
f 232/3/4 233/3/4 243/3/4
f 242/1/4 232/1/4 243/1/4
f 234/1/4 235/1/4 244/1/4
f 243/3/4 233/3/4 244/3/4
f 233/1/4 234/1/4 244/1/4
f 235/3/4 236/3/4 245/3/4
f 244/1/4 235/1/4 245/1/4
f 237/1/4 238/1/4 246/1/4
f 245/3/4 236/3/4 246/3/4
f 236/1/4 237/1/4 246/1/4
f 246/1/4 238/1/4 247/1/4
f 238/2/4 239/2/4 248/2/4
f 247/1/4 238/1/4 248/1/4
f 239/1/4 240/1/4 249/1/4
f 248/2/4 239/2/4 249/2/4
f 207/3/4 241/3/4 250/3/4
f 242/1/4 243/1/4 251/1/4
f 250/3/4 241/3/4 251/3/4
f 241/1/4 242/1/4 251/1/4
f 244/1/4 245/1/4 251/1/4
f 245/1/4 246/1/4 251/1/4
f 243/1/4 244/1/4 251/1/4
f 246/1/4 247/1/4 251/1/4
f 251/1/4 247/1/4 252/1/4
f 247/2/4 248/2/4 253/2/4
f 252/1/4 247/1/4 253/1/4
f 248/1/4 249/1/4 254/1/4
f 253/2/4 248/2/4 254/2/4
f 207/3/4 250/3/4 255/3/4
f 206/1/4 207/1/4 255/1/4
f 251/1/4 252/1/4 256/1/4
f 255/3/4 250/3/4 256/3/4
f 250/1/4 251/1/4 256/1/4
f 252/2/4 253/2/4 257/2/4
f 256/1/4 252/1/4 257/1/4
f 253/1/4 254/1/4 258/1/4
f 257/2/4 253/2/4 258/2/4
f 255/1/4 256/1/4 259/1/4
f 256/1/4 257/1/4 259/1/4
f 257/1/4 258/1/4 259/1/4
f 135/1/4 206/1/4 259/1/4
f 206/1/4 255/1/4 259/1/4
f 229/1/4 218/1/4 260/1/4
f 259/1/4 258/1/4 260/1/4
f 254/1/4 249/1/4 260/1/4
f 240/1/4 229/1/4 260/1/4
f 249/1/4 240/1/4 260/1/4
f 258/1/4 254/1/4 260/1/4
f 263/1/5 262/1/5 261/1/5
f 264/1/5 262/1/5 263/1/5
f 265/1/6 266/1/6 269/1/6
f 266/2/6 267/2/6 270/2/6
f 269/1/6 266/1/6 270/1/6
f 267/1/6 268/1/6 271/1/6
f 270/2/6 267/2/6 271/2/6
f 271/1/6 268/1/6 272/1/6
