# MagicaVoxel @ Ephtracy

# group
g color_cube

# material
mtllib color_cube.mtl
usemtl palette

# normals
vn -1 0 0
vn 1 0 0
vn 0 0 1
vn 0 0 -1
vn 0 -1 0
vn 0 1 0

# texcoords
vt 0.0292969 0.5
vt 0.119141 0.5
vt 0.123047 0.5
vt 0.138672 0.5
vt 0.162109 0.5
vt 0.263672 0.5
vt 0.302734 0.5
vt 0.380859 0.5
vt 0.404297 0.5
vt 0.443359 0.5
vt 0.591797 0.5
vt 0.611328 0.5
vt 0.658203 0.5
vt 0.681641 0.5
vt 0.689453 0.5
vt 0.724609 0.5
vt 0.826172 0.5
vt 0.841797 0.5
vt 0.845703 0.5
vt 0.880859 0.5
vt 0.884766 0.5
vt 0.892578 0.5
vt 0.919922 0.5
vt 0.923828 0.5
vt 0.958984 0.5
vt 0.962891 0.5
vt 0.994141 0.5

# verts
v -23.5 2 23
v -23.5 2 7
v -23.5 2 -8
v -23.5 2 -23
v -23.5 19 23
v -23.5 19 7
v -23.5 19 6
v -23.5 19 -8
v -23.5 19 -9
v -23.5 19 -23
v -23.5 36 23
v -23.5 36 7
v -23.5 36 6
v -23.5 36 -9
v -23.5 36 -23
v -23.5 53 24
v -23.5 53 23
v -23.5 53 8
v -23.5 53 7
v -23.5 53 -9
v -23.5 53 -23
v -23.5 54 24
v -23.5 54 8
v -23.5 54 -9
v -23.5 54 -23
v -22.5 1 23
v -22.5 1 6
v -22.5 1 -10
v -22.5 1 -22
v -22.5 2 24
v -22.5 2 23
v -22.5 2 7
v -22.5 2 6
v -22.5 2 -8
v -22.5 2 -10
v -22.5 2 -22
v -22.5 18 24
v -22.5 18 23
v -22.5 19 23
v -22.5 36 24
v -22.5 36 23
v -22.5 53 24
v -22.5 53 23
v -10.5 20 -21
v -10.5 20 -22
v -10.5 21 -21
v -10.5 21 -22
v -9.5 54 8
v -9.5 54 -9
v -9.5 55 8
v -9.5 55 -9
v 7.5 2 -23
v 7.5 2 -24
v 7.5 20 -23
v 7.5 20 -24
v 11.5 0 -10
v 11.5 0 -11
v 11.5 1 -10
v 11.5 1 -11
v -15.5 20 -21
v -15.5 20 -22
v -15.5 21 -21
v -15.5 21 -22
v 8.5 54 8
v 8.5 54 7
v 8.5 54 -9
v 8.5 55 8
v 8.5 55 -9
v 12.5 0 -10
v 12.5 0 -11
v 12.5 1 -10
v 12.5 1 -11
v 22.5 1 6
v 22.5 1 -11
v 22.5 1 -22
v 22.5 2 24
v 22.5 2 23
v 22.5 2 6
v 22.5 2 -8
v 22.5 2 -11
v 22.5 2 -22
v 22.5 2 -23
v 22.5 2 -24
v 22.5 18 24
v 22.5 18 23
v 22.5 19 23
v 22.5 19 -23
v 22.5 20 -23
v 22.5 20 -24
v 22.5 36 24
v 22.5 36 23
v 22.5 53 24
v 22.5 53 23
v 23.5 1 23
v 23.5 1 6
v 23.5 2 7
v 23.5 2 6
v 23.5 2 -8
v 23.5 2 -23
v 23.5 19 23
v 23.5 19 7
v 23.5 19 6
v 23.5 19 -8
v 23.5 19 -9
v 23.5 19 -23
v 23.5 36 23
v 23.5 36 7
v 23.5 36 6
v 23.5 36 -9
v 23.5 36 -23
v 23.5 53 24
v 23.5 53 23
v 23.5 53 7
v 23.5 53 -9
v 23.5 53 -23
v 23.5 54 24
v 23.5 54 7
v 23.5 54 -9
v 23.5 54 -23
v -23.5 53 24
v -23.5 54 24
v -22.5 2 24
v -22.5 18 24
v -22.5 36 24
v -22.5 53 24
v -9.5 2 24
v -9.5 18 24
v -9.5 36 24
v -9.5 53 24
v -9.5 54 24
v 9.5 2 24
v 9.5 18 24
v 9.5 36 24
v 9.5 53 24
v 9.5 54 24
v 22.5 2 24
v 22.5 18 24
v 22.5 36 24
v 22.5 53 24
v 23.5 53 24
v 23.5 54 24
v -23.5 2 23
v -23.5 19 23
v -23.5 36 23
v -23.5 53 23
v -22.5 1 23
v -22.5 2 23
v -22.5 18 23
v -22.5 19 23
v -22.5 36 23
v -22.5 53 23
v -9.5 1 23
v -9.5 2 23
v 9.5 1 23
v 9.5 2 23
v 22.5 2 23
v 22.5 18 23
v 22.5 19 23
v 22.5 36 23
v 22.5 53 23
v 23.5 1 23
v 23.5 19 23
v 23.5 36 23
v 23.5 53 23
v -9.5 54 8
v -9.5 55 8
v 8.5 54 8
v 8.5 55 8
v 11.5 0 -10
v 11.5 1 -10
v 12.5 0 -10
v 12.5 1 -10
v -15.5 20 -22
v -15.5 21 -22
v -10.5 20 -22
v -10.5 21 -22
v 22.5 1 6
v 22.5 2 6
v 23.5 1 6
v 23.5 2 6
v -9.5 54 -9
v -9.5 55 -9
v 8.5 54 -9
v 8.5 55 -9
v 11.5 0 -11
v 11.5 1 -11
v 12.5 0 -11
v 12.5 1 -11
v -15.5 20 -21
v -15.5 21 -21
v -10.5 20 -21
v -10.5 21 -21
v -22.5 1 -22
v -22.5 2 -22
v -11.5 2 -22
v -9.5 1 -22
v -9.5 2 -22
v 8.5 2 -22
v 9.5 1 -22
v 9.5 2 -22
v 22.5 1 -22
v 22.5 2 -22
v -23.5 2 -23
v -23.5 19 -23
v -23.5 36 -23
v -23.5 53 -23
v -23.5 54 -23
v -22.5 19 -23
v -22.5 20 -23
v -22.5 36 -23
v -22.5 37 -23
v -22.5 53 -23
v -11.5 2 -23
v -11.5 20 -23
v -10.5 20 -23
v -10.5 37 -23
v -10.5 53 -23
v -9.5 53 -23
v -9.5 54 -23
v 7.5 2 -23
v 7.5 20 -23
v 7.5 37 -23
v 7.5 53 -23
v 8.5 53 -23
v 8.5 54 -23
v 22.5 2 -23
v 22.5 19 -23
v 22.5 20 -23
v 22.5 36 -23
v 22.5 37 -23
v 22.5 53 -23
v 23.5 2 -23
v 23.5 19 -23
v 23.5 36 -23
v 23.5 53 -23
v 23.5 54 -23
v 7.5 2 -24
v 7.5 20 -24
v 22.5 2 -24
v 22.5 20 -24
v 11.5 0 -10
v 12.5 0 -10
v 11.5 0 -11
v 12.5 0 -11
v -22.5 1 23
v -9.5 1 23
v 9.5 1 23
v 23.5 1 23
v -22.5 1 6
v -9.5 1 6
v 9.5 1 6
v 22.5 1 6
v 23.5 1 6
v -9.5 1 5
v 9.5 1 5
v -22.5 1 -10
v -9.5 1 -10
v 9.5 1 -10
v 11.5 1 -10
v 12.5 1 -10
v 9.5 1 -11
v 11.5 1 -11
v 12.5 1 -11
v 22.5 1 -11
v -22.5 1 -22
v -9.5 1 -22
v 9.5 1 -22
v 22.5 1 -22
v -22.5 2 24
v -9.5 2 24
v 9.5 2 24
v 22.5 2 24
v -23.5 2 23
v -22.5 2 23
v -9.5 2 23
v 9.5 2 23
v 22.5 2 23
v -23.5 2 7
v -22.5 2 7
v -22.5 2 6
v 22.5 2 6
v 23.5 2 6
v -23.5 2 -8
v -22.5 2 -8
v 22.5 2 -8
v 23.5 2 -8
v -22.5 2 -10
v 22.5 2 -11
v -22.5 2 -22
v -11.5 2 -22
v -9.5 2 -22
v 8.5 2 -22
v 9.5 2 -22
v 22.5 2 -22
v -23.5 2 -23
v -11.5 2 -23
v 7.5 2 -23
v 8.5 2 -23
v 22.5 2 -23
v 23.5 2 -23
v 7.5 2 -24
v 22.5 2 -24
v -15.5 21 -21
v -10.5 21 -21
v -15.5 21 -22
v -10.5 21 -22
v -23.5 53 24
v -22.5 53 24
v 22.5 53 24
v 23.5 53 24
v -23.5 53 23
v -22.5 53 23
v 22.5 53 23
v 23.5 53 23
v -15.5 20 -21
v -10.5 20 -21
v -15.5 20 -22
v -10.5 20 -22
v 7.5 20 -23
v 22.5 20 -23
v 7.5 20 -24
v 22.5 20 -24
v -23.5 54 24
v -9.5 54 24
v 9.5 54 24
v 23.5 54 24
v -23.5 54 8
v -9.5 54 8
v 8.5 54 8
v 8.5 54 7
v 9.5 54 7
v 23.5 54 7
v -23.5 54 -9
v -9.5 54 -9
v 8.5 54 -9
v 23.5 54 -9
v -23.5 54 -23
v -9.5 54 -23
v 8.5 54 -23
v 23.5 54 -23
v -9.5 55 8
v 8.5 55 8
v -9.5 55 -9
v 8.5 55 -9

# faces
f 5/9/1 2/9/1 1/9/1
f 6/5/1 3/5/1 2/5/1
f 6/9/1 2/9/1 5/9/1
f 7/5/1 3/5/1 6/5/1
f 8/26/1 4/26/1 3/26/1
f 8/5/1 3/5/1 7/5/1
f 9/26/1 4/26/1 8/26/1
f 10/26/1 4/26/1 9/26/1
f 11/21/1 7/21/1 6/21/1
f 11/21/1 6/21/1 5/21/1
f 12/21/1 7/21/1 11/21/1
f 13/11/1 8/11/1 7/11/1
f 13/21/1 7/21/1 12/21/1
f 13/11/1 9/11/1 8/11/1
f 14/18/1 10/18/1 9/18/1
f 14/11/1 9/11/1 13/11/1
f 15/18/1 10/18/1 14/18/1
f 17/15/1 12/15/1 11/15/1
f 18/15/1 12/15/1 17/15/1
f 19/19/1 13/19/1 12/19/1
f 19/15/1 12/15/1 18/15/1
f 19/19/1 14/19/1 13/19/1
f 20/21/1 15/21/1 14/21/1
f 20/19/1 14/19/1 19/19/1
f 21/21/1 15/21/1 20/21/1
f 22/13/1 18/13/1 17/13/1
f 22/13/1 17/13/1 16/13/1
f 23/10/1 19/10/1 18/10/1
f 23/13/1 18/13/1 22/13/1
f 23/10/1 20/10/1 19/10/1
f 24/12/1 21/12/1 20/12/1
f 24/10/1 20/10/1 23/10/1
f 25/12/1 21/12/1 24/12/1
f 31/22/1 27/22/1 26/22/1
f 32/22/1 27/22/1 31/22/1
f 33/6/1 28/6/1 27/6/1
f 33/22/1 27/22/1 32/22/1
f 34/6/1 28/6/1 33/6/1
f 35/1/1 29/1/1 28/1/1
f 35/6/1 28/6/1 34/6/1
f 36/1/1 29/1/1 35/1/1
f 37/25/1 31/25/1 30/25/1
f 38/25/1 31/25/1 37/25/1
f 39/11/1 38/11/1 37/11/1
f 40/11/1 39/11/1 37/11/1
f 41/11/1 39/11/1 40/11/1
f 42/9/1 41/9/1 40/9/1
f 43/9/1 41/9/1 42/9/1
f 46/27/1 45/27/1 44/27/1
f 47/27/1 45/27/1 46/27/1
f 50/14/1 49/14/1 48/14/1
f 51/14/1 49/14/1 50/14/1
f 54/24/1 53/24/1 52/24/1
f 55/24/1 53/24/1 54/24/1
f 58/12/1 57/12/1 56/12/1
f 59/12/1 57/12/1 58/12/1
f 60/27/2 61/27/2 62/27/2
f 62/27/2 61/27/2 63/27/2
f 64/14/2 65/14/2 67/14/2
f 65/14/2 66/14/2 67/14/2
f 67/14/2 66/14/2 68/14/2
f 69/12/2 70/12/2 71/12/2
f 71/12/2 70/12/2 72/12/2
f 73/17/2 74/17/2 78/17/2
f 78/17/2 74/17/2 79/17/2
f 74/12/2 75/12/2 80/12/2
f 79/17/2 74/17/2 80/17/2
f 80/12/2 75/12/2 81/12/2
f 76/25/2 77/25/2 84/25/2
f 84/25/2 77/25/2 85/25/2
f 84/11/2 85/11/2 86/11/2
f 82/24/2 83/24/2 87/24/2
f 87/24/2 83/24/2 88/24/2
f 88/24/2 83/24/2 89/24/2
f 84/11/2 86/11/2 90/11/2
f 90/11/2 86/11/2 91/11/2
f 90/9/2 91/9/2 92/9/2
f 92/9/2 91/9/2 93/9/2
f 94/9/2 95/9/2 96/9/2
f 96/9/2 95/9/2 97/9/2
f 94/9/2 96/9/2 100/9/2
f 96/5/2 97/5/2 101/5/2
f 100/9/2 96/9/2 101/9/2
f 97/5/2 98/5/2 101/5/2
f 101/5/2 98/5/2 102/5/2
f 98/26/2 99/26/2 103/26/2
f 102/5/2 98/5/2 103/5/2
f 103/26/2 99/26/2 104/26/2
f 104/26/2 99/26/2 105/26/2
f 101/21/2 102/21/2 106/21/2
f 100/21/2 101/21/2 106/21/2
f 106/21/2 102/21/2 107/21/2
f 102/11/2 103/11/2 108/11/2
f 107/21/2 102/21/2 108/21/2
f 103/11/2 104/11/2 108/11/2
f 104/18/2 105/18/2 109/18/2
f 108/11/2 104/11/2 109/11/2
f 109/18/2 105/18/2 110/18/2
f 106/15/2 107/15/2 112/15/2
f 107/19/2 108/19/2 113/19/2
f 108/19/2 109/19/2 113/19/2
f 112/15/2 107/15/2 113/15/2
f 109/21/2 110/21/2 114/21/2
f 113/19/2 109/19/2 114/19/2
f 114/21/2 110/21/2 115/21/2
f 111/26/2 112/26/2 116/26/2
f 112/26/2 113/26/2 116/26/2
f 113/8/2 114/8/2 117/8/2
f 116/26/2 113/26/2 117/26/2
f 114/3/2 115/3/2 118/3/2
f 117/8/2 114/8/2 118/8/2
f 118/3/2 115/3/2 119/3/2
f 125/13/3 121/13/3 120/13/3
f 126/25/3 123/25/3 122/25/3
f 127/11/3 124/11/3 123/11/3
f 127/25/3 123/25/3 126/25/3
f 128/9/3 125/9/3 124/9/3
f 128/11/3 124/11/3 127/11/3
f 129/13/3 121/13/3 125/13/3
f 129/9/3 125/9/3 128/9/3
f 130/13/3 121/13/3 129/13/3
f 131/17/3 127/17/3 126/17/3
f 132/21/3 128/21/3 127/21/3
f 132/17/3 127/17/3 131/17/3
f 133/18/3 129/18/3 128/18/3
f 133/21/3 128/21/3 132/21/3
f 134/5/3 130/5/3 129/5/3
f 134/18/3 129/18/3 133/18/3
f 135/5/3 130/5/3 134/5/3
f 136/25/3 132/25/3 131/25/3
f 137/11/3 133/11/3 132/11/3
f 137/25/3 132/25/3 136/25/3
f 138/9/3 134/9/3 133/9/3
f 138/11/3 133/11/3 137/11/3
f 139/26/3 135/26/3 134/26/3
f 139/9/3 134/9/3 138/9/3
f 140/26/3 135/26/3 139/26/3
f 141/26/3 135/26/3 140/26/3
f 147/9/3 143/9/3 142/9/3
f 148/9/3 143/9/3 147/9/3
f 149/21/3 144/21/3 143/21/3
f 149/9/3 143/9/3 148/9/3
f 150/15/3 145/15/3 144/15/3
f 150/21/3 144/21/3 149/21/3
f 151/15/3 145/15/3 150/15/3
f 152/22/3 147/22/3 146/22/3
f 153/22/3 147/22/3 152/22/3
f 154/18/3 153/18/3 152/18/3
f 155/18/3 153/18/3 154/18/3
f 156/9/3 155/9/3 154/9/3
f 161/9/3 156/9/3 154/9/3
f 161/9/3 157/9/3 156/9/3
f 161/9/3 158/9/3 157/9/3
f 162/21/3 159/21/3 158/21/3
f 162/9/3 158/9/3 161/9/3
f 163/15/3 160/15/3 159/15/3
f 163/21/3 159/21/3 162/21/3
f 164/15/3 160/15/3 163/15/3
f 167/14/3 166/14/3 165/14/3
f 168/14/3 166/14/3 167/14/3
f 171/12/3 170/12/3 169/12/3
f 172/12/3 170/12/3 171/12/3
f 175/18/3 174/18/3 173/18/3
f 176/18/3 174/18/3 175/18/3
f 177/9/4 178/9/4 179/9/4
f 179/9/4 178/9/4 180/9/4
f 181/14/4 182/14/4 183/14/4
f 183/14/4 182/14/4 184/14/4
f 185/12/4 186/12/4 187/12/4
f 187/12/4 186/12/4 188/12/4
f 189/27/4 190/27/4 191/27/4
f 191/27/4 190/27/4 192/27/4
f 193/1/4 194/1/4 195/1/4
f 193/1/4 195/1/4 196/1/4
f 196/1/4 195/1/4 197/1/4
f 196/16/4 197/16/4 198/16/4
f 196/16/4 198/16/4 199/16/4
f 199/16/4 198/16/4 200/16/4
f 199/12/4 200/12/4 201/12/4
f 201/12/4 200/12/4 202/12/4
f 203/26/4 204/26/4 208/26/4
f 204/18/4 205/18/4 208/18/4
f 208/18/4 205/18/4 209/18/4
f 205/21/4 206/21/4 210/21/4
f 209/18/4 205/18/4 210/18/4
f 210/21/4 206/21/4 211/21/4
f 206/12/4 207/12/4 212/12/4
f 211/21/4 206/21/4 212/21/4
f 208/26/4 209/26/4 213/26/4
f 203/26/4 208/26/4 213/26/4
f 210/18/4 211/18/4 214/18/4
f 213/26/4 209/26/4 214/26/4
f 209/18/4 210/18/4 214/18/4
f 213/21/4 214/21/4 215/21/4
f 214/18/4 211/18/4 215/18/4
f 211/20/4 212/20/4 216/20/4
f 215/18/4 211/18/4 216/18/4
f 212/12/4 207/12/4 217/12/4
f 216/20/4 212/20/4 217/20/4
f 216/18/4 217/18/4 218/18/4
f 217/12/4 207/12/4 218/12/4
f 218/12/4 207/12/4 219/12/4
f 213/21/4 215/21/4 220/21/4
f 215/2/4 216/2/4 221/2/4
f 220/21/4 215/21/4 221/21/4
f 216/18/4 218/18/4 222/18/4
f 221/2/4 216/2/4 222/2/4
f 218/4/4 219/4/4 223/4/4
f 222/18/4 218/18/4 223/18/4
f 223/4/4 219/4/4 224/4/4
f 222/23/4 223/23/4 224/23/4
f 224/4/4 219/4/4 225/4/4
f 221/7/4 222/7/4 228/7/4
f 228/7/4 222/7/4 229/7/4
f 222/23/4 224/23/4 230/23/4
f 229/7/4 222/7/4 230/7/4
f 224/3/4 225/3/4 231/3/4
f 230/23/4 224/23/4 231/23/4
f 226/26/4 227/26/4 232/26/4
f 228/18/4 229/18/4 233/18/4
f 232/26/4 227/26/4 233/26/4
f 227/18/4 228/18/4 233/18/4
f 229/21/4 230/21/4 234/21/4
f 233/18/4 229/18/4 234/18/4
f 230/21/4 231/21/4 234/21/4
f 231/3/4 225/3/4 235/3/4
f 234/21/4 231/21/4 235/21/4
f 235/3/4 225/3/4 236/3/4
f 237/24/4 238/24/4 239/24/4
f 239/24/4 238/24/4 240/24/4
f 243/12/5 242/12/5 241/12/5
f 244/12/5 242/12/5 243/12/5
f 249/22/5 246/22/5 245/22/5
f 250/18/5 247/18/5 246/18/5
f 250/22/5 246/22/5 249/22/5
f 251/9/5 248/9/5 247/9/5
f 251/18/5 247/18/5 250/18/5
f 252/9/5 248/9/5 251/9/5
f 253/9/5 248/9/5 252/9/5
f 254/6/5 250/6/5 249/6/5
f 254/18/5 251/18/5 250/18/5
f 255/17/5 252/17/5 251/17/5
f 255/18/5 251/18/5 254/18/5
f 256/6/5 254/6/5 249/6/5
f 257/5/5 255/5/5 254/5/5
f 257/6/5 254/6/5 256/6/5
f 258/17/5 252/17/5 255/17/5
f 258/5/5 255/5/5 257/5/5
f 259/17/5 252/17/5 258/17/5
f 260/17/5 252/17/5 259/17/5
f 261/16/5 258/16/5 257/16/5
f 261/17/5 259/17/5 258/17/5
f 262/17/5 259/17/5 261/17/5
f 263/17/5 252/17/5 260/17/5
f 264/17/5 252/17/5 263/17/5
f 265/1/5 257/1/5 256/1/5
f 266/16/5 261/16/5 257/16/5
f 266/1/5 257/1/5 265/1/5
f 267/12/5 262/12/5 261/12/5
f 267/16/5 261/16/5 266/16/5
f 267/12/5 263/12/5 262/12/5
f 267/12/5 264/12/5 263/12/5
f 268/12/5 264/12/5 267/12/5
f 274/25/5 270/25/5 269/25/5
f 275/17/5 271/17/5 270/17/5
f 275/25/5 270/25/5 274/25/5
f 276/25/5 272/25/5 271/25/5
f 276/17/5 271/17/5 275/17/5
f 277/25/5 272/25/5 276/25/5
f 278/9/5 274/9/5 273/9/5
f 279/9/5 274/9/5 278/9/5
f 280/5/5 279/5/5 278/5/5
f 283/5/5 280/5/5 278/5/5
f 284/5/5 280/5/5 283/5/5
f 285/5/5 282/5/5 281/5/5
f 286/5/5 282/5/5 285/5/5
f 287/26/5 284/26/5 283/26/5
f 288/26/5 286/26/5 285/26/5
f 289/26/5 287/26/5 283/26/5
f 294/26/5 286/26/5 288/26/5
f 295/26/5 289/26/5 283/26/5
f 295/26/5 290/26/5 289/26/5
f 296/21/5 291/21/5 290/21/5
f 296/26/5 290/26/5 295/26/5
f 296/21/5 292/21/5 291/21/5
f 297/21/5 292/21/5 296/21/5
f 298/24/5 293/24/5 292/24/5
f 298/21/5 292/21/5 297/21/5
f 298/24/5 294/24/5 293/24/5
f 299/26/5 286/26/5 294/26/5
f 299/24/5 294/24/5 298/24/5
f 300/26/5 286/26/5 299/26/5
f 301/24/5 299/24/5 298/24/5
f 301/24/5 298/24/5 297/24/5
f 302/24/5 299/24/5 301/24/5
f 305/27/5 304/27/5 303/27/5
f 306/27/5 304/27/5 305/27/5
f 311/13/5 308/13/5 307/13/5
f 312/13/5 308/13/5 311/13/5
f 313/26/5 310/26/5 309/26/5
f 314/26/5 310/26/5 313/26/5
f 315/27/6 316/27/6 317/27/6
f 317/27/6 316/27/6 318/27/6
f 319/24/6 320/24/6 321/24/6
f 321/24/6 320/24/6 322/24/6
f 323/13/6 324/13/6 327/13/6
f 324/5/6 325/5/6 328/5/6
f 327/13/6 324/13/6 328/13/6
f 328/5/6 325/5/6 329/5/6
f 329/5/6 325/5/6 330/5/6
f 325/26/6 326/26/6 331/26/6
f 330/5/6 325/5/6 331/5/6
f 331/26/6 326/26/6 332/26/6
f 327/10/6 328/10/6 333/10/6
f 333/10/6 328/10/6 334/10/6
f 330/8/6 331/8/6 335/8/6
f 331/8/6 332/8/6 335/8/6
f 335/8/6 332/8/6 336/8/6
f 333/12/6 334/12/6 337/12/6
f 334/4/6 335/4/6 338/4/6
f 337/12/6 334/12/6 338/12/6
f 335/3/6 336/3/6 339/3/6
f 338/4/6 335/4/6 339/4/6
f 339/3/6 336/3/6 340/3/6
f 341/14/6 342/14/6 343/14/6
f 343/14/6 342/14/6 344/14/6
