# MagicaVoxel @ Ephtracy

# group
g destroyer_minion

# material
mtllib destroyer_minion.mtl
usemtl palette

# normals
vn -1 0 0
vn 1 0 0
vn 0 0 1
vn 0 0 -1
vn 0 -1 0
vn 0 1 0

# texcoords
vt 0.0175781 0.5
vt 0.0917969 0.5
vt 0.138672 0.5
vt 0.705078 0.5
vt 0.908203 0.5
vt 0.994141 0.5

# verts
v -3 7 1
v -3 7 -0
v -3 12 1
v -3 12 -0
v -2 4 1
v -2 4 -0
v -2 7 1
v -2 7 -0
v -1 0 1
v -1 0 -0
v -1 1 1
v -1 1 -0
v -1 2 1
v -1 2 -0
v -1 4 1
v -1 4 -0
v -1 6 -0
v -1 6 -1
v -1 8 -0
v -1 8 -1
v 1 9 1
v 1 9 -0
v 1 10 1
v 1 10 -0
v 2 10 1
v 2 10 -0
v 2 12 1
v 2 12 -0
v -2 10 1
v -2 10 -0
v -2 12 1
v -2 12 -0
v -1 9 1
v -1 9 -0
v -1 10 1
v -1 10 -0
v 1 0 1
v 1 0 -0
v 1 1 1
v 1 1 -0
v 1 2 1
v 1 2 -0
v 1 4 1
v 1 4 -0
v 1 6 -0
v 1 6 -1
v 1 8 -0
v 1 8 -1
v 2 4 1
v 2 4 -0
v 2 7 1
v 2 7 -0
v 3 7 1
v 3 7 -0
v 3 12 1
v 3 12 -0
v -3 7 1
v -3 12 1
v -2 4 1
v -2 7 1
v -2 8 1
v -2 10 1
v -2 12 1
v -1 0 1
v -1 1 1
v -1 2 1
v -1 4 1
v -1 8 1
v -1 9 1
v -1 10 1
v 0 1 1
v 0 2 1
v 1 0 1
v 1 1 1
v 1 2 1
v 1 4 1
v 1 8 1
v 1 9 1
v 1 10 1
v 2 4 1
v 2 7 1
v 2 8 1
v 2 10 1
v 2 12 1
v 3 7 1
v 3 12 1
v -3 7 -0
v -3 12 -0
v -2 4 -0
v -2 7 -0
v -2 8 -0
v -2 10 -0
v -2 12 -0
v -1 0 -0
v -1 1 -0
v -1 2 -0
v -1 4 -0
v -1 6 -0
v -1 8 -0
v -1 9 -0
v -1 10 -0
v 0 1 -0
v 0 2 -0
v 1 0 -0
v 1 1 -0
v 1 2 -0
v 1 4 -0
v 1 6 -0
v 1 8 -0
v 1 9 -0
v 1 10 -0
v 2 4 -0
v 2 7 -0
v 2 8 -0
v 2 10 -0
v 2 12 -0
v 3 7 -0
v 3 12 -0
v -1 6 -1
v -1 8 -1
v 1 6 -1
v 1 8 -1
v -1 0 1
v 1 0 1
v -1 0 -0
v 1 0 -0
v -2 4 1
v -1 4 1
v 1 4 1
v 2 4 1
v -2 4 -0
v -1 4 -0
v 1 4 -0
v 2 4 -0
v -1 6 -0
v 1 6 -0
v -1 6 -1
v 1 6 -1
v -3 7 1
v -2 7 1
v 2 7 1
v 3 7 1
v -3 7 -0
v -2 7 -0
v 2 7 -0
v 3 7 -0
v -1 8 -0
v 1 8 -0
v -1 8 -1
v 1 8 -1
v -1 9 1
v 1 9 1
v -1 9 -0
v 1 9 -0
v -2 10 1
v -1 10 1
v 1 10 1
v 2 10 1
v -2 10 -0
v -1 10 -0
v 1 10 -0
v 2 10 -0
v -3 12 1
v -2 12 1
v 2 12 1
v 3 12 1
v -3 12 -0
v -2 12 -0
v 2 12 -0
v 3 12 -0

# faces
f 3/6/1 2/6/1 1/6/1
f 4/6/1 2/6/1 3/6/1
f 7/5/1 6/5/1 5/5/1
f 8/5/1 6/5/1 7/5/1
f 11/3/1 10/3/1 9/3/1
f 12/3/1 10/3/1 11/3/1
f 13/2/1 12/2/1 11/2/1
f 14/2/1 12/2/1 13/2/1
f 15/5/1 14/5/1 13/5/1
f 16/5/1 14/5/1 15/5/1
f 19/4/1 18/4/1 17/4/1
f 20/4/1 18/4/1 19/4/1
f 23/6/1 22/6/1 21/6/1
f 24/6/1 22/6/1 23/6/1
f 27/6/1 26/6/1 25/6/1
f 28/6/1 26/6/1 27/6/1
f 29/6/2 30/6/2 31/6/2
f 31/6/2 30/6/2 32/6/2
f 33/6/2 34/6/2 35/6/2
f 35/6/2 34/6/2 36/6/2
f 37/3/2 38/3/2 39/3/2
f 39/3/2 38/3/2 40/3/2
f 39/1/2 40/1/2 41/1/2
f 41/1/2 40/1/2 42/1/2
f 41/5/2 42/5/2 43/5/2
f 43/5/2 42/5/2 44/5/2
f 45/4/2 46/4/2 47/4/2
f 47/4/2 46/4/2 48/4/2
f 49/5/2 50/5/2 51/5/2
f 51/5/2 50/5/2 52/5/2
f 53/6/2 54/6/2 55/6/2
f 55/6/2 54/6/2 56/6/2
f 60/6/3 58/6/3 57/6/3
f 61/6/3 58/6/3 60/6/3
f 62/6/3 58/6/3 61/6/3
f 63/6/3 58/6/3 62/6/3
f 67/5/3 60/5/3 59/5/3
f 67/5/3 61/5/3 60/5/3
f 68/6/3 62/6/3 61/6/3
f 68/5/3 61/5/3 67/5/3
f 69/6/3 62/6/3 68/6/3
f 70/6/3 62/6/3 69/6/3
f 71/2/3 66/2/3 65/2/3
f 71/3/3 65/3/3 64/3/3
f 72/5/3 69/5/3 68/5/3
f 72/2/3 66/2/3 71/2/3
f 72/5/3 67/5/3 66/5/3
f 72/5/3 68/5/3 67/5/3
f 73/3/3 71/3/3 64/3/3
f 74/1/3 72/1/3 71/1/3
f 74/3/3 71/3/3 73/3/3
f 75/5/3 69/5/3 72/5/3
f 75/1/3 72/1/3 74/1/3
f 76/5/3 69/5/3 75/5/3
f 77/5/3 69/5/3 76/5/3
f 78/5/3 69/5/3 77/5/3
f 80/5/3 77/5/3 76/5/3
f 81/5/3 77/5/3 80/5/3
f 82/6/3 79/6/3 78/6/3
f 82/5/3 77/5/3 81/5/3
f 82/6/3 78/6/3 77/6/3
f 83/6/3 79/6/3 82/6/3
f 85/6/3 83/6/3 82/6/3
f 85/6/3 84/6/3 83/6/3
f 85/6/3 82/6/3 81/6/3
f 86/6/3 84/6/3 85/6/3
f 87/6/4 88/6/4 90/6/4
f 90/6/4 88/6/4 91/6/4
f 91/6/4 88/6/4 92/6/4
f 92/6/4 88/6/4 93/6/4
f 89/5/4 90/5/4 97/5/4
f 90/5/4 91/5/4 97/5/4
f 97/5/4 91/5/4 98/5/4
f 91/6/4 92/6/4 99/6/4
f 98/5/4 91/5/4 99/5/4
f 99/6/4 92/6/4 100/6/4
f 100/6/4 92/6/4 101/6/4
f 95/2/4 96/2/4 102/2/4
f 94/3/4 95/3/4 102/3/4
f 97/5/4 98/5/4 103/5/4
f 102/2/4 96/2/4 103/2/4
f 96/5/4 97/5/4 103/5/4
f 94/3/4 102/3/4 104/3/4
f 102/1/4 103/1/4 105/1/4
f 104/3/4 102/3/4 105/3/4
f 103/5/4 98/5/4 106/5/4
f 105/1/4 103/1/4 106/1/4
f 106/5/4 98/5/4 107/5/4
f 107/5/4 98/5/4 108/5/4
f 99/5/4 100/5/4 109/5/4
f 109/5/4 100/5/4 110/5/4
f 107/5/4 108/5/4 112/5/4
f 108/5/4 109/5/4 112/5/4
f 112/5/4 109/5/4 113/5/4
f 110/6/4 111/6/4 114/6/4
f 113/5/4 109/5/4 114/5/4
f 109/6/4 110/6/4 114/6/4
f 114/6/4 111/6/4 115/6/4
f 114/6/4 115/6/4 117/6/4
f 115/6/4 116/6/4 117/6/4
f 113/6/4 114/6/4 117/6/4
f 117/6/4 116/6/4 118/6/4
f 119/4/4 120/4/4 121/4/4
f 121/4/4 120/4/4 122/4/4
f 125/3/5 124/3/5 123/3/5
f 126/3/5 124/3/5 125/3/5
f 131/5/5 128/5/5 127/5/5
f 132/5/5 128/5/5 131/5/5
f 133/5/5 130/5/5 129/5/5
f 134/5/5 130/5/5 133/5/5
f 137/4/5 136/4/5 135/4/5
f 138/4/5 136/4/5 137/4/5
f 143/6/5 140/6/5 139/6/5
f 144/6/5 140/6/5 143/6/5
f 145/6/5 142/6/5 141/6/5
f 146/6/5 142/6/5 145/6/5
f 147/4/6 148/4/6 149/4/6
f 149/4/6 148/4/6 150/4/6
f 151/5/6 152/5/6 153/5/6
f 153/5/6 152/5/6 154/5/6
f 155/6/6 156/6/6 159/6/6
f 159/6/6 156/6/6 160/6/6
f 157/6/6 158/6/6 161/6/6
f 161/6/6 158/6/6 162/6/6
f 163/6/6 164/6/6 167/6/6
f 167/6/6 164/6/6 168/6/6
f 165/6/6 166/6/6 169/6/6
f 169/6/6 166/6/6 170/6/6
