# MagicaVoxel @ Ephtracy

# group
g drooling_box

# material
mtllib drooling_box.mtl
usemtl palette

# normals
vn -1 0 0
vn 1 0 0
vn 0 0 1
vn 0 0 -1
vn 0 -1 0
vn 0 1 0

# texcoords
vt 0.0527344 0.5
vt 0.244141 0.5
vt 0.267578 0.5
vt 0.306641 0.5
vt 0.580078 0.5
vt 0.681641 0.5
vt 0.701172 0.5
vt 0.771484 0.5
vt 0.802734 0.5
vt 0.845703 0.5
vt 0.912109 0.5
vt 0.958984 0.5

# verts
v -20 0 20
v -20 0 -20
v -20 1 19
v -20 1 -19
v -20 39 19
v -20 39 -19
v -20 40 20
v -20 40 -20
v -18 2 18
v -18 2 -19
v -18 5 14
v -18 5 -15
v -18 35 14
v -18 35 -15
v -18 37 18
v -18 37 -19
v -18 38 18
v -18 38 -19
v -17 5 14
v -17 5 -15
v -17 35 14
v -17 35 -15
v -9 35 9
v -9 35 -10
v -9 36 9
v -9 36 -10
v -8 36 8
v -8 36 -9
v -8 37 8
v -8 37 -9
v -7 37 7
v -7 37 -8
v -7 38 7
v -7 38 -8
v -6 38 6
v -6 38 -7
v -6 39 6
v -6 39 -7
v -5 39 5
v -5 39 -6
v -5 40 5
v -5 40 -6
v 11 35 10
v 11 35 -11
v 11 36 10
v 11 36 -11
v 12 36 11
v 12 36 -12
v 12 37 11
v 12 37 -12
v 14 5 18
v 14 5 17
v 14 5 -18
v 14 5 -19
v 14 35 18
v 14 35 17
v 14 35 -18
v 14 35 -19
v 14 37 14
v 14 37 -15
v 14 38 14
v 14 38 -15
v 19 0 19
v 19 0 -19
v 19 1 20
v 19 1 19
v 19 1 -19
v 19 1 -20
v 19 39 20
v 19 39 19
v 19 39 -19
v 19 39 -20
v 19 40 19
v 19 40 -19
v -19 0 19
v -19 0 -19
v -19 1 20
v -19 1 19
v -19 1 -19
v -19 1 -20
v -19 39 20
v -19 39 19
v -19 39 -19
v -19 39 -20
v -19 40 19
v -19 40 -19
v -14 5 18
v -14 5 17
v -14 5 -18
v -14 5 -19
v -14 10 -18
v -14 34 -18
v -14 35 18
v -14 35 17
v -14 35 -18
v -14 35 -19
v -14 37 14
v -14 37 -15
v -14 38 14
v -14 38 -15
v -11 36 11
v -11 36 -12
v -11 37 11
v -11 37 -12
v -10 35 10
v -10 35 -11
v -10 36 10
v -10 36 -11
v 6 39 5
v 6 39 -6
v 6 40 5
v 6 40 -6
v 7 38 6
v 7 38 -7
v 7 39 6
v 7 39 -7
v 8 37 7
v 8 37 -8
v 8 38 7
v 8 38 -8
v 9 36 8
v 9 36 -9
v 9 37 8
v 9 37 -9
v 10 35 9
v 10 35 -10
v 10 36 9
v 10 36 -10
v 17 5 14
v 17 5 -15
v 17 35 14
v 17 35 -15
v 18 2 18
v 18 2 -19
v 18 5 14
v 18 5 -15
v 18 35 14
v 18 35 -15
v 18 37 18
v 18 37 -19
v 18 38 18
v 18 38 -19
v 20 0 20
v 20 0 -20
v 20 1 19
v 20 1 -19
v 20 39 19
v 20 39 -19
v 20 40 20
v 20 40 -20
v -20 0 20
v -20 40 20
v -19 1 20
v -19 39 20
v 19 1 20
v 19 39 20
v 20 0 20
v 20 40 20
v -18 2 18
v -18 37 18
v -18 38 18
v -14 5 18
v -14 35 18
v 14 5 18
v 14 35 18
v 18 2 18
v 18 37 18
v 18 38 18
v -14 5 17
v -14 35 17
v 14 5 17
v 14 35 17
v -9 35 9
v -9 36 9
v 10 35 9
v 10 36 9
v -8 36 8
v -8 37 8
v 9 36 8
v 9 37 8
v -7 37 7
v -7 38 7
v 8 37 7
v 8 38 7
v -6 38 6
v -6 39 6
v 7 38 6
v 7 39 6
v -5 39 5
v -5 40 5
v 6 39 5
v 6 40 5
v -10 35 -11
v -10 36 -11
v 11 35 -11
v 11 36 -11
v -11 36 -12
v -11 37 -12
v 12 36 -12
v 12 37 -12
v -18 5 -15
v -18 35 -15
v -17 5 -15
v -17 35 -15
v -14 37 -15
v -14 38 -15
v 14 37 -15
v 14 38 -15
v 17 5 -15
v 17 35 -15
v 18 5 -15
v 18 35 -15
v -20 1 -19
v -20 39 -19
v -19 0 -19
v -19 1 -19
v -19 39 -19
v -19 40 -19
v 19 0 -19
v 19 1 -19
v 19 39 -19
v 19 40 -19
v 20 1 -19
v 20 39 -19
v -20 1 19
v -20 39 19
v -19 0 19
v -19 1 19
v -19 39 19
v -19 40 19
v 19 0 19
v 19 1 19
v 19 39 19
v 19 40 19
v 20 1 19
v 20 39 19
v -18 5 14
v -18 35 14
v -17 5 14
v -17 35 14
v -14 37 14
v -14 38 14
v 14 37 14
v 14 38 14
v 17 5 14
v 17 35 14
v 18 5 14
v 18 35 14
v -11 36 11
v -11 37 11
v 12 36 11
v 12 37 11
v -10 35 10
v -10 36 10
v 11 35 10
v 11 36 10
v -5 39 -6
v -5 40 -6
v 6 39 -6
v 6 40 -6
v -6 38 -7
v -6 39 -7
v 7 38 -7
v 7 39 -7
v -7 37 -8
v -7 38 -8
v 8 37 -8
v 8 38 -8
v -8 36 -9
v -8 37 -9
v 9 36 -9
v 9 37 -9
v -9 35 -10
v -9 36 -10
v 10 35 -10
v 10 36 -10
v -14 5 -18
v -14 10 -18
v -14 34 -18
v -14 35 -18
v -12 10 -18
v -12 21 -18
v -12 27 -18
v -12 33 -18
v -12 34 -18
v -11 31 -18
v -11 32 -18
v -10 30 -18
v -10 31 -18
v -10 33 -18
v -10 34 -18
v -9 30 -18
v -9 31 -18
v -7 21 -18
v -7 27 -18
v -7 31 -18
v -7 32 -18
v -6 12 -18
v -6 15 -18
v -4 9 -18
v -4 12 -18
v -4 13 -18
v -4 14 -18
v -3 9 -18
v -3 12 -18
v -3 13 -18
v -3 14 -18
v -1 21 -18
v -1 29 -18
v 0 12 -18
v 0 13 -18
v 0 21 -18
v 0 23 -18
v 1 12 -18
v 1 13 -18
v 2 23 -18
v 2 29 -18
v 5 13 -18
v 5 14 -18
v 6 9 -18
v 6 12 -18
v 7 9 -18
v 7 12 -18
v 7 13 -18
v 7 14 -18
v 7 31 -18
v 7 32 -18
v 8 21 -18
v 8 23 -18
v 9 12 -18
v 9 15 -18
v 9 30 -18
v 9 31 -18
v 9 33 -18
v 9 35 -18
v 10 30 -18
v 10 31 -18
v 11 21 -18
v 11 23 -18
v 11 31 -18
v 11 32 -18
v 12 33 -18
v 12 35 -18
v 14 5 -18
v 14 35 -18
v -18 2 -19
v -18 37 -19
v -18 38 -19
v -14 5 -19
v -14 35 -19
v 14 5 -19
v 14 35 -19
v 18 2 -19
v 18 37 -19
v 18 38 -19
v -20 0 -20
v -20 40 -20
v -19 1 -20
v -19 39 -20
v 19 1 -20
v 19 39 -20
v 20 0 -20
v 20 40 -20
v -20 0 20
v 20 0 20
v -19 0 19
v 19 0 19
v -19 0 -19
v 19 0 -19
v -20 0 -20
v 20 0 -20
v -18 2 18
v 18 2 18
v -17 2 17
v 17 2 17
v -17 2 -18
v 17 2 -18
v -18 2 -19
v 18 2 -19
v -14 35 18
v 14 35 18
v -14 35 17
v 14 35 17
v -18 35 14
v -17 35 14
v 17 35 14
v 18 35 14
v -18 35 -15
v -17 35 -15
v 17 35 -15
v 18 35 -15
v -14 35 -18
v 9 35 -18
v 12 35 -18
v 14 35 -18
v -14 35 -19
v 14 35 -19
v -19 39 20
v 19 39 20
v -20 39 19
v -19 39 19
v 19 39 19
v 20 39 19
v -20 39 -19
v -19 39 -19
v 19 39 -19
v 20 39 -19
v -19 39 -20
v 19 39 -20
v -19 1 20
v 19 1 20
v -20 1 19
v -19 1 19
v 19 1 19
v 20 1 19
v -20 1 -19
v -19 1 -19
v 19 1 -19
v 20 1 -19
v -19 1 -20
v 19 1 -20
v -14 5 18
v 14 5 18
v -14 5 17
v 14 5 17
v -18 5 14
v -17 5 14
v 17 5 14
v 18 5 14
v -18 5 -15
v -17 5 -15
v 17 5 -15
v 18 5 -15
v -14 5 -18
v 14 5 -18
v -14 5 -19
v 14 5 -19
v -10 35 10
v 11 35 10
v -9 35 9
v 10 35 9
v -9 35 -10
v 10 35 -10
v -10 35 -11
v 11 35 -11
v -11 36 11
v 12 36 11
v -10 36 10
v 11 36 10
v -9 36 9
v 10 36 9
v -8 36 8
v 9 36 8
v -8 36 -9
v 9 36 -9
v -9 36 -10
v 10 36 -10
v -10 36 -11
v 11 36 -11
v -11 36 -12
v 12 36 -12
v -14 37 14
v 14 37 14
v -11 37 11
v 12 37 11
v -8 37 8
v 9 37 8
v -7 37 7
v 8 37 7
v -7 37 -8
v 8 37 -8
v -8 37 -9
v 9 37 -9
v -11 37 -12
v 12 37 -12
v -14 37 -15
v 14 37 -15
v -18 38 18
v 18 38 18
v -14 38 14
v 14 38 14
v -7 38 7
v 8 38 7
v -6 38 6
v 7 38 6
v -6 38 -7
v 7 38 -7
v -7 38 -8
v 8 38 -8
v -14 38 -15
v 14 38 -15
v -18 38 -19
v 18 38 -19
v -6 39 6
v 7 39 6
v -5 39 5
v 6 39 5
v -5 39 -6
v 6 39 -6
v -6 39 -7
v 7 39 -7
v -20 40 20
v 20 40 20
v -19 40 19
v 19 40 19
v -5 40 5
v 6 40 5
v -5 40 -6
v 6 40 -6
v -19 40 -19
v 19 40 -19
v -20 40 -20
v 20 40 -20

# faces
f 3/11/1 2/11/1 1/11/1
f 4/11/1 2/11/1 3/11/1
f 5/11/1 3/11/1 1/11/1
f 6/11/1 2/11/1 4/11/1
f 7/11/1 5/11/1 1/11/1
f 7/11/1 6/11/1 5/11/1
f 8/11/1 2/11/1 6/11/1
f 8/11/1 6/11/1 7/11/1
f 11/6/1 10/6/1 9/6/1
f 12/6/1 10/6/1 11/6/1
f 13/6/1 11/6/1 9/6/1
f 14/6/1 10/6/1 12/6/1
f 15/6/1 13/6/1 9/6/1
f 15/6/1 14/6/1 13/6/1
f 16/6/1 10/6/1 14/6/1
f 16/6/1 14/6/1 15/6/1
f 17/9/1 16/9/1 15/9/1
f 18/9/1 16/9/1 17/9/1
f 21/5/1 20/5/1 19/5/1
f 22/5/1 20/5/1 21/5/1
f 25/2/1 24/2/1 23/2/1
f 26/2/1 24/2/1 25/2/1
f 29/2/1 28/2/1 27/2/1
f 30/2/1 28/2/1 29/2/1
f 33/2/1 32/2/1 31/2/1
f 34/2/1 32/2/1 33/2/1
f 37/2/1 36/2/1 35/2/1
f 38/2/1 36/2/1 37/2/1
f 41/2/1 40/2/1 39/2/1
f 42/2/1 40/2/1 41/2/1
f 45/2/1 44/2/1 43/2/1
f 46/2/1 44/2/1 45/2/1
f 49/8/1 48/8/1 47/8/1
f 50/8/1 48/8/1 49/8/1
f 55/6/1 52/6/1 51/6/1
f 56/6/1 52/6/1 55/6/1
f 57/6/1 54/6/1 53/6/1
f 58/6/1 54/6/1 57/6/1
f 61/9/1 60/9/1 59/9/1
f 62/9/1 60/9/1 61/9/1
f 66/11/1 64/11/1 63/11/1
f 67/11/1 64/11/1 66/11/1
f 69/11/1 66/11/1 65/11/1
f 70/11/1 66/11/1 69/11/1
f 71/11/1 68/11/1 67/11/1
f 72/11/1 68/11/1 71/11/1
f 73/11/1 71/11/1 70/11/1
f 74/11/1 71/11/1 73/11/1
f 75/11/2 76/11/2 78/11/2
f 78/11/2 76/11/2 79/11/2
f 77/11/2 78/11/2 81/11/2
f 81/11/2 78/11/2 82/11/2
f 79/11/2 80/11/2 83/11/2
f 83/11/2 80/11/2 84/11/2
f 82/11/2 83/11/2 85/11/2
f 85/11/2 83/11/2 86/11/2
f 89/6/2 90/6/2 91/6/2
f 91/6/2 90/6/2 92/6/2
f 87/6/2 88/6/2 93/6/2
f 93/6/2 88/6/2 94/6/2
f 92/6/2 90/6/2 95/6/2
f 95/6/2 90/6/2 96/6/2
f 97/9/2 98/9/2 99/9/2
f 99/9/2 98/9/2 100/9/2
f 101/8/2 102/8/2 103/8/2
f 103/8/2 102/8/2 104/8/2
f 105/2/2 106/2/2 107/2/2
f 107/2/2 106/2/2 108/2/2
f 109/2/2 110/2/2 111/2/2
f 111/2/2 110/2/2 112/2/2
f 113/2/2 114/2/2 115/2/2
f 115/2/2 114/2/2 116/2/2
f 117/2/2 118/2/2 119/2/2
f 119/2/2 118/2/2 120/2/2
f 121/2/2 122/2/2 123/2/2
f 123/2/2 122/2/2 124/2/2
f 125/2/2 126/2/2 127/2/2
f 127/2/2 126/2/2 128/2/2
f 129/5/2 130/5/2 131/5/2
f 131/5/2 130/5/2 132/5/2
f 133/6/2 134/6/2 135/6/2
f 135/6/2 134/6/2 136/6/2
f 133/6/2 135/6/2 137/6/2
f 136/6/2 134/6/2 138/6/2
f 133/6/2 137/6/2 139/6/2
f 137/6/2 138/6/2 139/6/2
f 138/6/2 134/6/2 140/6/2
f 139/6/2 138/6/2 140/6/2
f 139/9/2 140/9/2 141/9/2
f 141/9/2 140/9/2 142/9/2
f 143/11/2 144/11/2 145/11/2
f 145/11/2 144/11/2 146/11/2
f 143/11/2 145/11/2 147/11/2
f 146/11/2 144/11/2 148/11/2
f 143/11/2 147/11/2 149/11/2
f 147/11/2 148/11/2 149/11/2
f 148/11/2 144/11/2 150/11/2
f 149/11/2 148/11/2 150/11/2
f 153/11/3 152/11/3 151/11/3
f 154/11/3 152/11/3 153/11/3
f 155/11/3 153/11/3 151/11/3
f 156/11/3 152/11/3 154/11/3
f 157/11/3 155/11/3 151/11/3
f 157/11/3 156/11/3 155/11/3
f 158/11/3 152/11/3 156/11/3
f 158/11/3 156/11/3 157/11/3
f 162/6/3 160/6/3 159/6/3
f 163/6/3 160/6/3 162/6/3
f 164/6/3 162/6/3 159/6/3
f 165/6/3 160/6/3 163/6/3
f 166/6/3 164/6/3 159/6/3
f 166/6/3 165/6/3 164/6/3
f 167/9/3 161/9/3 160/9/3
f 167/6/3 165/6/3 166/6/3
f 167/6/3 160/6/3 165/6/3
f 168/9/3 161/9/3 167/9/3
f 171/5/3 170/5/3 169/5/3
f 172/5/3 170/5/3 171/5/3
f 175/2/3 174/2/3 173/2/3
f 176/2/3 174/2/3 175/2/3
f 179/2/3 178/2/3 177/2/3
f 180/2/3 178/2/3 179/2/3
f 183/2/3 182/2/3 181/2/3
f 184/2/3 182/2/3 183/2/3
f 187/2/3 186/2/3 185/2/3
f 188/2/3 186/2/3 187/2/3
f 191/2/3 190/2/3 189/2/3
f 192/2/3 190/2/3 191/2/3
f 195/2/3 194/2/3 193/2/3
f 196/2/3 194/2/3 195/2/3
f 199/8/3 198/8/3 197/8/3
f 200/8/3 198/8/3 199/8/3
f 203/6/3 202/6/3 201/6/3
f 204/6/3 202/6/3 203/6/3
f 207/9/3 206/9/3 205/9/3
f 208/9/3 206/9/3 207/9/3
f 211/6/3 210/6/3 209/6/3
f 212/6/3 210/6/3 211/6/3
f 216/11/3 214/11/3 213/11/3
f 217/11/3 214/11/3 216/11/3
f 219/11/3 216/11/3 215/11/3
f 220/11/3 216/11/3 219/11/3
f 221/11/3 218/11/3 217/11/3
f 222/11/3 218/11/3 221/11/3
f 223/11/3 221/11/3 220/11/3
f 224/11/3 221/11/3 223/11/3
f 225/11/4 226/11/4 228/11/4
f 228/11/4 226/11/4 229/11/4
f 227/11/4 228/11/4 231/11/4
f 231/11/4 228/11/4 232/11/4
f 229/11/4 230/11/4 233/11/4
f 233/11/4 230/11/4 234/11/4
f 232/11/4 233/11/4 235/11/4
f 235/11/4 233/11/4 236/11/4
f 237/6/4 238/6/4 239/6/4
f 239/6/4 238/6/4 240/6/4
f 241/9/4 242/9/4 243/9/4
f 243/9/4 242/9/4 244/9/4
f 245/6/4 246/6/4 247/6/4
f 247/6/4 246/6/4 248/6/4
f 249/8/4 250/8/4 251/8/4
f 251/8/4 250/8/4 252/8/4
f 253/2/4 254/2/4 255/2/4
f 255/2/4 254/2/4 256/2/4
f 257/2/4 258/2/4 259/2/4
f 259/2/4 258/2/4 260/2/4
f 261/2/4 262/2/4 263/2/4
f 263/2/4 262/2/4 264/2/4
f 265/2/4 266/2/4 267/2/4
f 267/2/4 266/2/4 268/2/4
f 269/2/4 270/2/4 271/2/4
f 271/2/4 270/2/4 272/2/4
f 273/2/4 274/2/4 275/2/4
f 275/2/4 274/2/4 276/2/4
f 277/4/4 278/4/4 281/4/4
f 278/2/4 279/2/4 281/2/4
f 281/2/4 279/2/4 282/2/4
f 282/2/4 279/2/4 283/2/4
f 283/2/4 279/2/4 284/2/4
f 279/4/4 280/4/4 285/4/4
f 284/2/4 279/2/4 285/2/4
f 283/4/4 284/4/4 286/4/4
f 286/4/4 284/4/4 287/4/4
f 283/4/4 286/4/4 288/4/4
f 286/10/4 287/10/4 289/10/4
f 288/4/4 286/4/4 289/4/4
f 284/6/4 285/6/4 290/6/4
f 287/4/4 284/4/4 290/4/4
f 285/4/4 280/4/4 291/4/4
f 290/6/4 285/6/4 291/6/4
f 288/10/4 289/10/4 292/10/4
f 283/4/4 288/4/4 292/4/4
f 289/10/4 287/10/4 293/10/4
f 292/10/4 289/10/4 293/10/4
f 281/4/4 282/4/4 294/4/4
f 282/10/4 283/10/4 294/10/4
f 292/4/4 293/4/4 295/4/4
f 294/10/4 283/10/4 295/10/4
f 283/4/4 292/4/4 295/4/4
f 293/10/4 287/10/4 296/10/4
f 295/4/4 293/4/4 296/4/4
f 287/4/4 290/4/4 297/4/4
f 296/10/4 287/10/4 297/10/4
f 290/4/4 291/4/4 297/4/4
f 295/4/4 296/4/4 298/4/4
f 294/4/4 295/4/4 298/4/4
f 296/4/4 297/4/4 298/4/4
f 281/4/4 294/4/4 298/4/4
f 298/4/4 297/4/4 299/4/4
f 277/4/4 281/4/4 300/4/4
f 281/4/4 298/4/4 300/4/4
f 298/7/4 299/7/4 301/7/4
f 300/4/4 298/4/4 301/4/4
f 301/7/4 299/7/4 302/7/4
f 302/7/4 299/7/4 303/7/4
f 277/4/4 300/4/4 304/4/4
f 300/7/4 301/7/4 304/7/4
f 301/7/4 302/7/4 304/7/4
f 304/7/4 302/7/4 305/7/4
f 302/12/4 303/12/4 306/12/4
f 305/7/4 302/7/4 306/7/4
f 303/7/4 299/7/4 307/7/4
f 306/12/4 303/12/4 307/12/4
f 299/4/4 297/4/4 308/4/4
f 308/4/4 297/4/4 309/4/4
f 305/7/4 306/7/4 310/7/4
f 304/4/4 305/4/4 310/4/4
f 306/7/4 307/7/4 310/7/4
f 310/7/4 307/7/4 311/7/4
f 308/10/4 309/10/4 312/10/4
f 299/4/4 308/4/4 312/4/4
f 312/10/4 309/10/4 313/10/4
f 310/12/4 311/12/4 314/12/4
f 304/4/4 310/4/4 314/4/4
f 311/7/4 307/7/4 315/7/4
f 314/12/4 311/12/4 315/12/4
f 313/10/4 309/10/4 316/10/4
f 312/4/4 313/4/4 316/4/4
f 309/4/4 297/4/4 317/4/4
f 316/10/4 309/10/4 317/10/4
f 315/7/4 307/7/4 318/7/4
f 314/7/4 315/7/4 318/7/4
f 307/7/4 299/7/4 319/7/4
f 318/7/4 307/7/4 319/7/4
f 304/4/4 314/4/4 320/4/4
f 277/4/4 304/4/4 320/4/4
f 314/7/4 318/7/4 321/7/4
f 320/4/4 314/4/4 321/4/4
f 277/4/4 320/4/4 322/4/4
f 320/7/4 321/7/4 322/7/4
f 321/7/4 318/7/4 323/7/4
f 322/7/4 321/7/4 323/7/4
f 318/12/4 319/12/4 324/12/4
f 323/7/4 318/7/4 324/7/4
f 319/7/4 299/7/4 325/7/4
f 324/12/4 319/12/4 325/12/4
f 317/4/4 297/4/4 326/4/4
f 316/4/4 317/4/4 326/4/4
f 297/4/4 291/4/4 327/4/4
f 326/4/4 297/4/4 327/4/4
f 316/4/4 326/4/4 328/4/4
f 312/4/4 316/4/4 328/4/4
f 299/4/4 312/4/4 328/4/4
f 328/4/4 326/4/4 329/4/4
f 323/7/4 324/7/4 330/7/4
f 322/4/4 323/4/4 330/4/4
f 324/7/4 325/7/4 330/7/4
f 325/7/4 299/7/4 331/7/4
f 330/7/4 325/7/4 331/7/4
f 299/4/4 328/4/4 331/4/4
f 329/4/4 326/4/4 332/4/4
f 326/10/4 327/10/4 333/10/4
f 332/4/4 326/4/4 333/4/4
f 327/4/4 291/4/4 334/4/4
f 291/4/4 280/4/4 335/4/4
f 334/4/4 291/4/4 335/4/4
f 329/4/4 332/4/4 336/4/4
f 332/10/4 333/10/4 336/10/4
f 333/10/4 327/10/4 337/10/4
f 336/10/4 333/10/4 337/10/4
f 331/4/4 328/4/4 338/4/4
f 328/10/4 329/10/4 338/10/4
f 330/4/4 331/4/4 338/4/4
f 329/4/4 336/4/4 339/4/4
f 338/10/4 329/10/4 339/10/4
f 336/4/4 337/4/4 339/4/4
f 337/10/4 327/10/4 340/10/4
f 339/4/4 337/4/4 340/4/4
f 327/4/4 334/4/4 341/4/4
f 340/10/4 327/10/4 341/10/4
f 339/4/4 340/4/4 342/4/4
f 341/4/4 334/4/4 342/4/4
f 340/4/4 341/4/4 342/4/4
f 338/4/4 339/4/4 342/4/4
f 334/6/4 335/6/4 342/6/4
f 342/6/4 335/6/4 343/6/4
f 330/4/4 338/4/4 344/4/4
f 277/4/4 322/4/4 344/4/4
f 342/4/4 343/4/4 344/4/4
f 338/4/4 342/4/4 344/4/4
f 322/4/4 330/4/4 344/4/4
f 344/4/4 343/4/4 345/4/4
f 346/6/4 347/6/4 349/6/4
f 349/6/4 347/6/4 350/6/4
f 346/6/4 349/6/4 351/6/4
f 350/6/4 347/6/4 352/6/4
f 346/6/4 351/6/4 353/6/4
f 351/6/4 352/6/4 353/6/4
f 347/9/4 348/9/4 354/9/4
f 353/6/4 352/6/4 354/6/4
f 352/6/4 347/6/4 354/6/4
f 354/9/4 348/9/4 355/9/4
f 356/11/4 357/11/4 358/11/4
f 358/11/4 357/11/4 359/11/4
f 356/11/4 358/11/4 360/11/4
f 359/11/4 357/11/4 361/11/4
f 356/11/4 360/11/4 362/11/4
f 360/11/4 361/11/4 362/11/4
f 361/11/4 357/11/4 363/11/4
f 362/11/4 361/11/4 363/11/4
f 366/11/5 365/11/5 364/11/5
f 367/11/5 365/11/5 366/11/5
f 368/11/5 366/11/5 364/11/5
f 369/11/5 365/11/5 367/11/5
f 370/11/5 368/11/5 364/11/5
f 370/11/5 369/11/5 368/11/5
f 371/11/5 365/11/5 369/11/5
f 371/11/5 369/11/5 370/11/5
f 374/6/5 373/6/5 372/6/5
f 375/6/5 373/6/5 374/6/5
f 376/6/5 374/6/5 372/6/5
f 376/2/5 375/2/5 374/2/5
f 377/6/5 373/6/5 375/6/5
f 377/2/5 375/2/5 376/2/5
f 378/6/5 376/6/5 372/6/5
f 378/6/5 377/6/5 376/6/5
f 379/6/5 373/6/5 377/6/5
f 379/6/5 377/6/5 378/6/5
f 382/6/5 381/6/5 380/6/5
f 383/6/5 381/6/5 382/6/5
f 388/6/5 385/6/5 384/6/5
f 389/6/5 385/6/5 388/6/5
f 390/6/5 387/6/5 386/6/5
f 391/6/5 387/6/5 390/6/5
f 396/6/5 393/6/5 392/6/5
f 396/6/5 395/6/5 394/6/5
f 396/6/5 394/6/5 393/6/5
f 397/6/5 395/6/5 396/6/5
f 401/11/5 399/11/5 398/11/5
f 402/11/5 399/11/5 401/11/5
f 404/11/5 401/11/5 400/11/5
f 405/11/5 401/11/5 404/11/5
f 406/11/5 403/11/5 402/11/5
f 407/11/5 403/11/5 406/11/5
f 408/11/5 406/11/5 405/11/5
f 409/11/5 406/11/5 408/11/5
f 410/11/6 411/11/6 413/11/6
f 413/11/6 411/11/6 414/11/6
f 412/11/6 413/11/6 416/11/6
f 416/11/6 413/11/6 417/11/6
f 414/11/6 415/11/6 418/11/6
f 418/11/6 415/11/6 419/11/6
f 417/11/6 418/11/6 420/11/6
f 420/11/6 418/11/6 421/11/6
f 422/6/6 423/6/6 424/6/6
f 424/6/6 423/6/6 425/6/6
f 426/6/6 427/6/6 430/6/6
f 430/6/6 427/6/6 431/6/6
f 428/6/6 429/6/6 432/6/6
f 432/6/6 429/6/6 433/6/6
f 434/6/6 435/6/6 436/6/6
f 436/6/6 435/6/6 437/6/6
f 438/1/6 439/1/6 440/1/6
f 440/1/6 439/1/6 441/1/6
f 438/1/6 440/1/6 442/1/6
f 441/1/6 439/1/6 443/1/6
f 438/1/6 442/1/6 444/1/6
f 442/1/6 443/1/6 444/1/6
f 443/1/6 439/1/6 445/1/6
f 444/1/6 443/1/6 445/1/6
f 446/2/6 447/2/6 448/2/6
f 448/2/6 447/2/6 449/2/6
f 450/2/6 451/2/6 452/2/6
f 452/2/6 451/2/6 453/2/6
f 450/2/6 452/2/6 454/2/6
f 453/2/6 451/2/6 455/2/6
f 450/2/6 454/2/6 456/2/6
f 454/2/6 455/2/6 456/2/6
f 455/2/6 451/2/6 457/2/6
f 456/2/6 455/2/6 457/2/6
f 446/2/6 448/2/6 458/2/6
f 449/2/6 447/2/6 459/2/6
f 446/2/6 458/2/6 460/2/6
f 458/2/6 459/2/6 460/2/6
f 459/2/6 447/2/6 461/2/6
f 460/2/6 459/2/6 461/2/6
f 462/8/6 463/8/6 464/8/6
f 464/8/6 463/8/6 465/8/6
f 466/2/6 467/2/6 468/2/6
f 468/2/6 467/2/6 469/2/6
f 466/2/6 468/2/6 470/2/6
f 469/2/6 467/2/6 471/2/6
f 466/2/6 470/2/6 472/2/6
f 470/2/6 471/2/6 472/2/6
f 471/2/6 467/2/6 473/2/6
f 472/2/6 471/2/6 473/2/6
f 462/8/6 464/8/6 474/8/6
f 465/8/6 463/8/6 475/8/6
f 462/8/6 474/8/6 476/8/6
f 474/8/6 475/8/6 476/8/6
f 475/8/6 463/8/6 477/8/6
f 476/8/6 475/8/6 477/8/6
f 478/9/6 479/9/6 480/9/6
f 480/9/6 479/9/6 481/9/6
f 482/2/6 483/2/6 484/2/6
f 484/2/6 483/2/6 485/2/6
f 482/2/6 484/2/6 486/2/6
f 485/2/6 483/2/6 487/2/6
f 482/2/6 486/2/6 488/2/6
f 486/2/6 487/2/6 488/2/6
f 487/2/6 483/2/6 489/2/6
f 488/2/6 487/2/6 489/2/6
f 478/9/6 480/9/6 490/9/6
f 481/9/6 479/9/6 491/9/6
f 478/9/6 490/9/6 492/9/6
f 490/9/6 491/9/6 492/9/6
f 491/9/6 479/9/6 493/9/6
f 492/9/6 491/9/6 493/9/6
f 494/2/6 495/2/6 496/2/6
f 496/2/6 495/2/6 497/2/6
f 494/2/6 496/2/6 498/2/6
f 497/2/6 495/2/6 499/2/6
f 494/2/6 498/2/6 500/2/6
f 498/2/6 499/2/6 500/2/6
f 499/2/6 495/2/6 501/2/6
f 500/2/6 499/2/6 501/2/6
f 502/11/6 503/11/6 504/11/6
f 504/11/6 503/11/6 505/11/6
f 506/2/6 507/2/6 508/2/6
f 508/2/6 507/2/6 509/2/6
f 502/11/6 504/11/6 510/11/6
f 505/11/6 503/11/6 511/11/6
f 502/11/6 510/11/6 512/11/6
f 510/11/6 511/11/6 512/11/6
f 511/11/6 503/11/6 513/11/6
f 512/11/6 511/11/6 513/11/6
