# MagicaVoxel @ Ephtracy

# group
g middle_f

# material
mtllib middle_f.mtl
usemtl palette

# normals
vn -1 0 0
vn 1 0 0
vn 0 0 1
vn 0 0 -1
vn 0 -1 0
vn 0 1 0

# texcoords
vt 0.958984 0.5
vt 0.966797 0.5
vt 0.994141 0.5

# verts
v -14 14 0.5
v -14 14 -0.5
v -14 19 0.5
v -14 19 -0.5
v -13 13 0.5
v -13 13 -0.5
v -13 14 0.5
v -13 14 -0.5
v -13 19 0.5
v -13 19 -0.5
v -13 20 0.5
v -13 20 -0.5
v -12 12 0.5
v -12 12 -0.5
v -12 13 0.5
v -12 13 -0.5
v -11 9 0.5
v -11 9 -0.5
v -11 12 0.5
v -11 12 -0.5
v -10 7 0.5
v -10 7 -0.5
v -10 9 0.5
v -10 9 -0.5
v -9 5 0.5
v -9 5 -0.5
v -9 7 0.5
v -9 7 -0.5
v -8 0 0.5
v -8 0 -0.5
v -8 5 0.5
v -8 5 -0.5
v -7 19 0.5
v -7 19 -0.5
v -7 24 0.5
v -7 24 -0.5
v -6 24 0.5
v -6 24 -0.5
v -6 25 0.5
v -6 25 -0.5
v -5 25 0.5
v -5 25 -0.5
v -5 26 0.5
v -5 26 -0.5
v -1 26 0.5
v -1 26 -0.5
v -1 35 0.5
v -1 35 -0.5
v 0 35 0.5
v 0 35 -0.5
v 0 36 0.5
v 0 36 -0.5
v 1 36 0.5
v 1 36 -0.5
v 1 37 0.5
v 1 37 -0.5
v -9 19 0.5
v -9 19 -0.5
v -9 20 0.5
v -9 20 -0.5
v 3 36 0.5
v 3 36 -0.5
v 3 37 0.5
v 3 37 -0.5
v 4 35 0.5
v 4 35 -0.5
v 4 36 0.5
v 4 36 -0.5
v 5 26 0.5
v 5 26 -0.5
v 5 35 0.5
v 5 35 -0.5
v 9 25 0.5
v 9 25 -0.5
v 9 26 0.5
v 9 26 -0.5
v 11 0 0.5
v 11 0 -0.5
v 11 4 0.5
v 11 4 -0.5
v 12 4 0.5
v 12 4 -0.5
v 12 5 0.5
v 12 5 -0.5
v 12 24 0.5
v 12 24 -0.5
v 12 25 0.5
v 12 25 -0.5
v 13 5 0.5
v 13 5 -0.5
v 13 9 0.5
v 13 9 -0.5
v 13 23 0.5
v 13 23 -0.5
v 13 24 0.5
v 13 24 -0.5
v 14 9 0.5
v 14 9 -0.5
v 14 23 0.5
v 14 23 -0.5
v -14 14 0.5
v -14 19 0.5
v -13 13 0.5
v -13 14 0.5
v -13 19 0.5
v -13 20 0.5
v -12 12 0.5
v -12 13 0.5
v -12 14 0.5
v -11 9 0.5
v -11 12 0.5
v -11 13 0.5
v -10 7 0.5
v -10 9 0.5
v -10 12 0.5
v -9 5 0.5
v -9 7 0.5
v -9 9 0.5
v -9 17 0.5
v -9 18 0.5
v -9 19 0.5
v -9 20 0.5
v -8 0 0.5
v -8 5 0.5
v -8 7 0.5
v -8 15 0.5
v -8 17 0.5
v -7 1 0.5
v -7 5 0.5
v -7 14 0.5
v -7 15 0.5
v -7 18 0.5
v -7 19 0.5
v -7 24 0.5
v -6 1 0.5
v -6 2 0.5
v -6 14 0.5
v -6 24 0.5
v -6 25 0.5
v -5 24 0.5
v -5 25 0.5
v -5 26 0.5
v -2 18 0.5
v -2 24 0.5
v -1 17 0.5
v -1 18 0.5
v -1 24 0.5
v -1 25 0.5
v -1 26 0.5
v -1 35 0.5
v 0 17 0.5
v 0 18 0.5
v 0 35 0.5
v 0 36 0.5
v 1 35 0.5
v 1 36 0.5
v 1 37 0.5
v 3 18 0.5
v 3 35 0.5
v 3 36 0.5
v 3 37 0.5
v 4 17 0.5
v 4 18 0.5
v 4 35 0.5
v 4 36 0.5
v 5 17 0.5
v 5 18 0.5
v 5 25 0.5
v 5 26 0.5
v 5 35 0.5
v 8 18 0.5
v 8 24 0.5
v 9 2 0.5
v 9 4 0.5
v 9 17 0.5
v 9 18 0.5
v 9 24 0.5
v 9 25 0.5
v 9 26 0.5
v 10 1 0.5
v 10 4 0.5
v 10 5 0.5
v 10 17 0.5
v 10 18 0.5
v 10 24 0.5
v 11 0 0.5
v 11 4 0.5
v 11 5 0.5
v 11 8 0.5
v 12 4 0.5
v 12 5 0.5
v 12 8 0.5
v 12 9 0.5
v 12 23 0.5
v 12 24 0.5
v 12 25 0.5
v 13 5 0.5
v 13 9 0.5
v 13 23 0.5
v 13 24 0.5
v 14 9 0.5
v 14 23 0.5
v -14 14 -0.5
v -14 19 -0.5
v -13 13 -0.5
v -13 14 -0.5
v -13 19 -0.5
v -13 20 -0.5
v -12 12 -0.5
v -12 13 -0.5
v -12 14 -0.5
v -11 9 -0.5
v -11 12 -0.5
v -11 13 -0.5
v -10 7 -0.5
v -10 9 -0.5
v -10 12 -0.5
v -9 5 -0.5
v -9 7 -0.5
v -9 9 -0.5
v -9 17 -0.5
v -9 18 -0.5
v -9 19 -0.5
v -9 20 -0.5
v -8 0 -0.5
v -8 5 -0.5
v -8 7 -0.5
v -8 15 -0.5
v -8 17 -0.5
v -7 1 -0.5
v -7 5 -0.5
v -7 14 -0.5
v -7 15 -0.5
v -7 18 -0.5
v -7 19 -0.5
v -7 24 -0.5
v -6 1 -0.5
v -6 2 -0.5
v -6 14 -0.5
v -6 24 -0.5
v -6 25 -0.5
v -5 24 -0.5
v -5 25 -0.5
v -5 26 -0.5
v -2 18 -0.5
v -2 24 -0.5
v -1 17 -0.5
v -1 18 -0.5
v -1 24 -0.5
v -1 25 -0.5
v -1 26 -0.5
v -1 35 -0.5
v 0 17 -0.5
v 0 18 -0.5
v 0 35 -0.5
v 0 36 -0.5
v 1 35 -0.5
v 1 36 -0.5
v 1 37 -0.5
v 3 18 -0.5
v 3 35 -0.5
v 3 36 -0.5
v 3 37 -0.5
v 4 17 -0.5
v 4 18 -0.5
v 4 35 -0.5
v 4 36 -0.5
v 5 17 -0.5
v 5 18 -0.5
v 5 25 -0.5
v 5 26 -0.5
v 5 35 -0.5
v 8 18 -0.5
v 8 24 -0.5
v 9 2 -0.5
v 9 4 -0.5
v 9 17 -0.5
v 9 18 -0.5
v 9 24 -0.5
v 9 25 -0.5
v 9 26 -0.5
v 10 1 -0.5
v 10 4 -0.5
v 10 5 -0.5
v 10 17 -0.5
v 10 18 -0.5
v 10 24 -0.5
v 11 0 -0.5
v 11 4 -0.5
v 11 5 -0.5
v 11 8 -0.5
v 12 4 -0.5
v 12 5 -0.5
v 12 8 -0.5
v 12 9 -0.5
v 12 23 -0.5
v 12 24 -0.5
v 12 25 -0.5
v 13 5 -0.5
v 13 9 -0.5
v 13 23 -0.5
v 13 24 -0.5
v 14 9 -0.5
v 14 23 -0.5
v -8 0 0.5
v 11 0 0.5
v -8 0 -0.5
v 11 0 -0.5
v 11 4 0.5
v 12 4 0.5
v 11 4 -0.5
v 12 4 -0.5
v -9 5 0.5
v -8 5 0.5
v 12 5 0.5
v 13 5 0.5
v -9 5 -0.5
v -8 5 -0.5
v 12 5 -0.5
v 13 5 -0.5
v -10 7 0.5
v -9 7 0.5
v -10 7 -0.5
v -9 7 -0.5
v -11 9 0.5
v -10 9 0.5
v 13 9 0.5
v 14 9 0.5
v -11 9 -0.5
v -10 9 -0.5
v 13 9 -0.5
v 14 9 -0.5
v -12 12 0.5
v -11 12 0.5
v -12 12 -0.5
v -11 12 -0.5
v -13 13 0.5
v -12 13 0.5
v -13 13 -0.5
v -12 13 -0.5
v -14 14 0.5
v -13 14 0.5
v -14 14 -0.5
v -13 14 -0.5
v -14 19 0.5
v -13 19 0.5
v -9 19 0.5
v -7 19 0.5
v -14 19 -0.5
v -13 19 -0.5
v -9 19 -0.5
v -7 19 -0.5
v -13 20 0.5
v -9 20 0.5
v -13 20 -0.5
v -9 20 -0.5
v 13 23 0.5
v 14 23 0.5
v 13 23 -0.5
v 14 23 -0.5
v -7 24 0.5
v -6 24 0.5
v 12 24 0.5
v 13 24 0.5
v -7 24 -0.5
v -6 24 -0.5
v 12 24 -0.5
v 13 24 -0.5
v -6 25 0.5
v -5 25 0.5
v 9 25 0.5
v 12 25 0.5
v -6 25 -0.5
v -5 25 -0.5
v 9 25 -0.5
v 12 25 -0.5
v -5 26 0.5
v -1 26 0.5
v 5 26 0.5
v 9 26 0.5
v -5 26 -0.5
v -1 26 -0.5
v 5 26 -0.5
v 9 26 -0.5
v -1 35 0.5
v 0 35 0.5
v 4 35 0.5
v 5 35 0.5
v -1 35 -0.5
v 0 35 -0.5
v 4 35 -0.5
v 5 35 -0.5
v 0 36 0.5
v 1 36 0.5
v 3 36 0.5
v 4 36 0.5
v 0 36 -0.5
v 1 36 -0.5
v 3 36 -0.5
v 4 36 -0.5
v 1 37 0.5
v 3 37 0.5
v 1 37 -0.5
v 3 37 -0.5

# faces
f 3/3/1 2/3/1 1/3/1
f 4/3/1 2/3/1 3/3/1
f 7/3/1 6/3/1 5/3/1
f 8/3/1 6/3/1 7/3/1
f 11/3/1 10/3/1 9/3/1
f 12/3/1 10/3/1 11/3/1
f 15/3/1 14/3/1 13/3/1
f 16/3/1 14/3/1 15/3/1
f 19/3/1 18/3/1 17/3/1
f 20/3/1 18/3/1 19/3/1
f 23/3/1 22/3/1 21/3/1
f 24/3/1 22/3/1 23/3/1
f 27/3/1 26/3/1 25/3/1
f 28/3/1 26/3/1 27/3/1
f 31/3/1 30/3/1 29/3/1
f 32/3/1 30/3/1 31/3/1
f 35/3/1 34/3/1 33/3/1
f 36/3/1 34/3/1 35/3/1
f 39/3/1 38/3/1 37/3/1
f 40/3/1 38/3/1 39/3/1
f 43/3/1 42/3/1 41/3/1
f 44/3/1 42/3/1 43/3/1
f 47/3/1 46/3/1 45/3/1
f 48/3/1 46/3/1 47/3/1
f 51/3/1 50/3/1 49/3/1
f 52/3/1 50/3/1 51/3/1
f 55/3/1 54/3/1 53/3/1
f 56/3/1 54/3/1 55/3/1
f 57/3/2 58/3/2 59/3/2
f 59/3/2 58/3/2 60/3/2
f 61/3/2 62/3/2 63/3/2
f 63/3/2 62/3/2 64/3/2
f 65/3/2 66/3/2 67/3/2
f 67/3/2 66/3/2 68/3/2
f 69/3/2 70/3/2 71/3/2
f 71/3/2 70/3/2 72/3/2
f 73/3/2 74/3/2 75/3/2
f 75/3/2 74/3/2 76/3/2
f 77/3/2 78/3/2 79/3/2
f 79/3/2 78/3/2 80/3/2
f 81/3/2 82/3/2 83/3/2
f 83/3/2 82/3/2 84/3/2
f 85/3/2 86/3/2 87/3/2
f 87/3/2 86/3/2 88/3/2
f 89/3/2 90/3/2 91/3/2
f 91/3/2 90/3/2 92/3/2
f 93/3/2 94/3/2 95/3/2
f 95/3/2 94/3/2 96/3/2
f 97/3/2 98/3/2 99/3/2
f 99/3/2 98/3/2 100/3/2
f 104/3/3 102/3/3 101/3/3
f 105/3/3 102/3/3 104/3/3
f 108/3/3 104/3/3 103/3/3
f 109/1/3 105/1/3 104/1/3
f 109/3/3 104/3/3 108/3/3
f 111/3/3 108/3/3 107/3/3
f 112/1/3 109/1/3 108/1/3
f 112/3/3 108/3/3 111/3/3
f 114/3/3 111/3/3 110/3/3
f 115/1/3 112/1/3 111/1/3
f 115/3/3 111/3/3 114/3/3
f 117/3/3 114/3/3 113/3/3
f 118/1/3 115/1/3 114/1/3
f 118/3/3 114/3/3 117/3/3
f 119/1/3 105/1/3 109/1/3
f 119/1/3 115/1/3 118/1/3
f 119/1/3 109/1/3 112/1/3
f 119/1/3 112/1/3 115/1/3
f 120/1/3 105/1/3 119/1/3
f 121/3/3 106/3/3 105/3/3
f 121/1/3 105/1/3 120/1/3
f 122/3/3 106/3/3 121/3/3
f 124/3/3 117/3/3 116/3/3
f 125/1/3 118/1/3 117/1/3
f 125/1/3 119/1/3 118/1/3
f 125/3/3 117/3/3 124/3/3
f 126/1/3 119/1/3 125/1/3
f 127/2/3 120/2/3 119/2/3
f 127/1/3 119/1/3 126/1/3
f 128/3/3 124/3/3 123/3/3
f 129/1/3 126/1/3 125/1/3
f 129/3/3 124/3/3 128/3/3
f 129/1/3 125/1/3 124/1/3
f 130/1/3 126/1/3 129/1/3
f 131/2/3 127/2/3 126/2/3
f 131/1/3 126/1/3 130/1/3
f 132/2/3 120/2/3 127/2/3
f 132/2/3 127/2/3 131/2/3
f 132/3/3 121/3/3 120/3/3
f 133/3/3 121/3/3 132/3/3
f 135/3/3 128/3/3 123/3/3
f 135/1/3 129/1/3 128/1/3
f 135/1/3 130/1/3 129/1/3
f 136/1/3 130/1/3 135/1/3
f 137/3/3 134/3/3 133/3/3
f 137/1/3 130/1/3 136/1/3
f 137/3/3 131/3/3 130/3/3
f 137/3/3 133/3/3 132/3/3
f 137/3/3 132/3/3 131/3/3
f 138/3/3 134/3/3 137/3/3
f 140/1/3 137/1/3 136/1/3
f 140/3/3 139/3/3 138/3/3
f 140/1/3 138/1/3 137/1/3
f 141/3/3 139/3/3 140/3/3
f 143/1/3 140/1/3 136/1/3
f 143/1/3 141/1/3 140/1/3
f 144/1/3 141/1/3 143/1/3
f 145/1/3 143/1/3 136/1/3
f 146/2/3 144/2/3 143/2/3
f 146/1/3 143/1/3 145/1/3
f 147/1/3 141/1/3 144/1/3
f 147/2/3 144/2/3 146/2/3
f 148/3/3 142/3/3 141/3/3
f 148/1/3 141/1/3 147/1/3
f 149/3/3 142/3/3 148/3/3
f 151/2/3 146/2/3 145/2/3
f 151/1/3 145/1/3 136/1/3
f 152/3/3 147/3/3 146/3/3
f 152/2/3 146/2/3 151/2/3
f 152/3/3 150/3/3 149/3/3
f 152/3/3 148/3/3 147/3/3
f 152/3/3 149/3/3 148/3/3
f 153/3/3 150/3/3 152/3/3
f 155/1/3 152/1/3 151/1/3
f 155/3/3 154/3/3 153/3/3
f 155/1/3 153/1/3 152/1/3
f 156/3/3 154/3/3 155/3/3
f 158/1/3 155/1/3 151/1/3
f 158/1/3 156/1/3 155/1/3
f 159/1/3 156/1/3 158/1/3
f 160/3/3 157/3/3 156/3/3
f 160/1/3 156/1/3 159/1/3
f 161/3/3 157/3/3 160/3/3
f 162/1/3 151/1/3 136/1/3
f 162/1/3 158/1/3 151/1/3
f 163/2/3 159/2/3 158/2/3
f 163/1/3 158/1/3 162/1/3
f 164/3/3 160/3/3 159/3/3
f 164/2/3 159/2/3 163/2/3
f 165/3/3 160/3/3 164/3/3
f 166/1/3 162/1/3 136/1/3
f 166/2/3 163/2/3 162/2/3
f 167/3/3 164/3/3 163/3/3
f 167/2/3 163/2/3 166/2/3
f 168/3/3 164/3/3 167/3/3
f 169/3/3 164/3/3 168/3/3
f 170/3/3 164/3/3 169/3/3
f 171/1/3 167/1/3 166/1/3
f 171/1/3 168/1/3 167/1/3
f 172/1/3 168/1/3 171/1/3
f 173/2/3 136/2/3 135/2/3
f 173/1/3 166/1/3 136/1/3
f 173/1/3 171/1/3 166/1/3
f 174/1/3 171/1/3 173/1/3
f 175/1/3 171/1/3 174/1/3
f 176/2/3 172/2/3 171/2/3
f 176/1/3 171/1/3 175/1/3
f 177/1/3 168/1/3 172/1/3
f 177/2/3 172/2/3 176/2/3
f 178/3/3 169/3/3 168/3/3
f 178/1/3 168/1/3 177/1/3
f 179/3/3 169/3/3 178/3/3
f 180/3/3 135/3/3 123/3/3
f 180/2/3 173/2/3 135/2/3
f 180/2/3 174/2/3 173/2/3
f 181/1/3 175/1/3 174/1/3
f 181/2/3 174/2/3 180/2/3
f 182/1/3 175/1/3 181/1/3
f 183/2/3 176/2/3 175/2/3
f 183/1/3 175/1/3 182/1/3
f 184/3/3 177/3/3 176/3/3
f 184/2/3 176/2/3 183/2/3
f 184/3/3 178/3/3 177/3/3
f 185/3/3 178/3/3 184/3/3
f 186/3/3 180/3/3 123/3/3
f 186/3/3 181/3/3 180/3/3
f 187/2/3 182/2/3 181/2/3
f 187/3/3 181/3/3 186/3/3
f 188/1/3 183/1/3 182/1/3
f 188/2/3 182/2/3 187/2/3
f 188/1/3 185/1/3 184/1/3
f 188/1/3 184/1/3 183/1/3
f 189/1/3 185/1/3 188/1/3
f 190/3/3 188/3/3 187/3/3
f 191/2/3 189/2/3 188/2/3
f 191/3/3 188/3/3 190/3/3
f 192/1/3 185/1/3 189/1/3
f 192/2/3 189/2/3 191/2/3
f 193/1/3 185/1/3 192/1/3
f 194/1/3 185/1/3 193/1/3
f 195/3/3 178/3/3 185/3/3
f 195/1/3 185/1/3 194/1/3
f 196/3/3 178/3/3 195/3/3
f 197/3/3 192/3/3 191/3/3
f 197/3/3 193/3/3 192/3/3
f 198/2/3 194/2/3 193/2/3
f 198/3/3 193/3/3 197/3/3
f 199/3/3 195/3/3 194/3/3
f 199/2/3 194/2/3 198/2/3
f 200/3/3 195/3/3 199/3/3
f 201/3/3 199/3/3 198/3/3
f 202/3/3 199/3/3 201/3/3
f 203/3/4 204/3/4 206/3/4
f 206/3/4 204/3/4 207/3/4
f 205/3/4 206/3/4 210/3/4
f 206/1/4 207/1/4 211/1/4
f 210/3/4 206/3/4 211/3/4
f 209/3/4 210/3/4 213/3/4
f 210/1/4 211/1/4 214/1/4
f 213/3/4 210/3/4 214/3/4
f 212/3/4 213/3/4 216/3/4
f 213/1/4 214/1/4 217/1/4
f 216/3/4 213/3/4 217/3/4
f 215/3/4 216/3/4 219/3/4
f 216/1/4 217/1/4 220/1/4
f 219/3/4 216/3/4 220/3/4
f 211/1/4 207/1/4 221/1/4
f 220/1/4 217/1/4 221/1/4
f 214/1/4 211/1/4 221/1/4
f 217/1/4 214/1/4 221/1/4
f 221/1/4 207/1/4 222/1/4
f 207/3/4 208/3/4 223/3/4
f 222/1/4 207/1/4 223/1/4
f 223/3/4 208/3/4 224/3/4
f 218/3/4 219/3/4 226/3/4
f 219/1/4 220/1/4 227/1/4
f 220/1/4 221/1/4 227/1/4
f 226/3/4 219/3/4 227/3/4
f 227/1/4 221/1/4 228/1/4
f 221/2/4 222/2/4 229/2/4
f 228/1/4 221/1/4 229/1/4
f 225/3/4 226/3/4 230/3/4
f 227/1/4 228/1/4 231/1/4
f 230/3/4 226/3/4 231/3/4
f 226/1/4 227/1/4 231/1/4
f 231/1/4 228/1/4 232/1/4
f 228/2/4 229/2/4 233/2/4
f 232/1/4 228/1/4 233/1/4
f 229/2/4 222/2/4 234/2/4
f 233/2/4 229/2/4 234/2/4
f 222/3/4 223/3/4 234/3/4
f 234/3/4 223/3/4 235/3/4
f 225/3/4 230/3/4 237/3/4
f 230/1/4 231/1/4 237/1/4
f 231/1/4 232/1/4 237/1/4
f 237/1/4 232/1/4 238/1/4
f 235/3/4 236/3/4 239/3/4
f 238/1/4 232/1/4 239/1/4
f 232/3/4 233/3/4 239/3/4
f 234/3/4 235/3/4 239/3/4
f 233/3/4 234/3/4 239/3/4
f 239/3/4 236/3/4 240/3/4
f 238/1/4 239/1/4 242/1/4
f 240/3/4 241/3/4 242/3/4
f 239/1/4 240/1/4 242/1/4
f 242/3/4 241/3/4 243/3/4
f 238/1/4 242/1/4 245/1/4
f 242/1/4 243/1/4 245/1/4
f 245/1/4 243/1/4 246/1/4
f 238/1/4 245/1/4 247/1/4
f 245/2/4 246/2/4 248/2/4
f 247/1/4 245/1/4 248/1/4
f 246/1/4 243/1/4 249/1/4
f 248/2/4 246/2/4 249/2/4
f 243/3/4 244/3/4 250/3/4
f 249/1/4 243/1/4 250/1/4
f 250/3/4 244/3/4 251/3/4
f 247/2/4 248/2/4 253/2/4
f 238/1/4 247/1/4 253/1/4
f 248/3/4 249/3/4 254/3/4
f 253/2/4 248/2/4 254/2/4
f 251/3/4 252/3/4 254/3/4
f 249/3/4 250/3/4 254/3/4
f 250/3/4 251/3/4 254/3/4
f 254/3/4 252/3/4 255/3/4
f 253/1/4 254/1/4 257/1/4
f 255/3/4 256/3/4 257/3/4
f 254/1/4 255/1/4 257/1/4
f 257/3/4 256/3/4 258/3/4
f 253/1/4 257/1/4 260/1/4
f 257/1/4 258/1/4 260/1/4
f 260/1/4 258/1/4 261/1/4
f 258/3/4 259/3/4 262/3/4
f 261/1/4 258/1/4 262/1/4
f 262/3/4 259/3/4 263/3/4
f 238/1/4 253/1/4 264/1/4
f 253/1/4 260/1/4 264/1/4
f 260/2/4 261/2/4 265/2/4
f 264/1/4 260/1/4 265/1/4
f 261/3/4 262/3/4 266/3/4
f 265/2/4 261/2/4 266/2/4
f 266/3/4 262/3/4 267/3/4
f 238/1/4 264/1/4 268/1/4
f 264/2/4 265/2/4 268/2/4
f 265/3/4 266/3/4 269/3/4
f 268/2/4 265/2/4 269/2/4
f 269/3/4 266/3/4 270/3/4
f 270/3/4 266/3/4 271/3/4
f 271/3/4 266/3/4 272/3/4
f 268/1/4 269/1/4 273/1/4
f 269/1/4 270/1/4 273/1/4
f 273/1/4 270/1/4 274/1/4
f 237/2/4 238/2/4 275/2/4
f 238/1/4 268/1/4 275/1/4
f 268/1/4 273/1/4 275/1/4
f 275/1/4 273/1/4 276/1/4
f 276/1/4 273/1/4 277/1/4
f 273/2/4 274/2/4 278/2/4
f 277/1/4 273/1/4 278/1/4
f 274/1/4 270/1/4 279/1/4
f 278/2/4 274/2/4 279/2/4
f 270/3/4 271/3/4 280/3/4
f 279/1/4 270/1/4 280/1/4
f 280/3/4 271/3/4 281/3/4
f 225/3/4 237/3/4 282/3/4
f 237/2/4 275/2/4 282/2/4
f 275/2/4 276/2/4 282/2/4
f 276/1/4 277/1/4 283/1/4
f 282/2/4 276/2/4 283/2/4
f 283/1/4 277/1/4 284/1/4
f 277/2/4 278/2/4 285/2/4
f 284/1/4 277/1/4 285/1/4
f 278/3/4 279/3/4 286/3/4
f 285/2/4 278/2/4 286/2/4
f 279/3/4 280/3/4 286/3/4
f 286/3/4 280/3/4 287/3/4
f 225/3/4 282/3/4 288/3/4
f 282/3/4 283/3/4 288/3/4
f 283/2/4 284/2/4 289/2/4
f 288/3/4 283/3/4 289/3/4
f 284/1/4 285/1/4 290/1/4
f 289/2/4 284/2/4 290/2/4
f 286/1/4 287/1/4 290/1/4
f 285/1/4 286/1/4 290/1/4
f 290/1/4 287/1/4 291/1/4
f 289/3/4 290/3/4 292/3/4
f 290/2/4 291/2/4 293/2/4
f 292/3/4 290/3/4 293/3/4
f 291/1/4 287/1/4 294/1/4
f 293/2/4 291/2/4 294/2/4
f 294/1/4 287/1/4 295/1/4
f 295/1/4 287/1/4 296/1/4
f 287/3/4 280/3/4 297/3/4
f 296/1/4 287/1/4 297/1/4
f 297/3/4 280/3/4 298/3/4
f 293/3/4 294/3/4 299/3/4
f 294/3/4 295/3/4 299/3/4
f 295/2/4 296/2/4 300/2/4
f 299/3/4 295/3/4 300/3/4
f 296/3/4 297/3/4 301/3/4
f 300/2/4 296/2/4 301/2/4
f 301/3/4 297/3/4 302/3/4
f 300/3/4 301/3/4 303/3/4
f 303/3/4 301/3/4 304/3/4
f 307/3/5 306/3/5 305/3/5
f 308/3/5 306/3/5 307/3/5
f 311/3/5 310/3/5 309/3/5
f 312/3/5 310/3/5 311/3/5
f 317/3/5 314/3/5 313/3/5
f 318/3/5 314/3/5 317/3/5
f 319/3/5 316/3/5 315/3/5
f 320/3/5 316/3/5 319/3/5
f 323/3/5 322/3/5 321/3/5
f 324/3/5 322/3/5 323/3/5
f 329/3/5 326/3/5 325/3/5
f 330/3/5 326/3/5 329/3/5
f 331/3/5 328/3/5 327/3/5
f 332/3/5 328/3/5 331/3/5
f 335/3/5 334/3/5 333/3/5
f 336/3/5 334/3/5 335/3/5
f 339/3/5 338/3/5 337/3/5
f 340/3/5 338/3/5 339/3/5
f 343/3/5 342/3/5 341/3/5
f 344/3/5 342/3/5 343/3/5
f 345/3/6 346/3/6 349/3/6
f 349/3/6 346/3/6 350/3/6
f 347/3/6 348/3/6 351/3/6
f 351/3/6 348/3/6 352/3/6
f 353/3/6 354/3/6 355/3/6
f 355/3/6 354/3/6 356/3/6
f 357/3/6 358/3/6 359/3/6
f 359/3/6 358/3/6 360/3/6
f 361/3/6 362/3/6 365/3/6
f 365/3/6 362/3/6 366/3/6
f 363/3/6 364/3/6 367/3/6
f 367/3/6 364/3/6 368/3/6
f 369/3/6 370/3/6 373/3/6
f 373/3/6 370/3/6 374/3/6
f 371/3/6 372/3/6 375/3/6
f 375/3/6 372/3/6 376/3/6
f 377/3/6 378/3/6 381/3/6
f 381/3/6 378/3/6 382/3/6
f 379/3/6 380/3/6 383/3/6
f 383/3/6 380/3/6 384/3/6
f 385/3/6 386/3/6 389/3/6
f 389/3/6 386/3/6 390/3/6
f 387/3/6 388/3/6 391/3/6
f 391/3/6 388/3/6 392/3/6
f 393/3/6 394/3/6 397/3/6
f 397/3/6 394/3/6 398/3/6
f 395/3/6 396/3/6 399/3/6
f 399/3/6 396/3/6 400/3/6
f 401/3/6 402/3/6 403/3/6
f 403/3/6 402/3/6 404/3/6
